<svg id="Слой_1" data-name="Слой 1" xmlns="http://www.w3.org/2000/svg" viewBox="0 0 42.13 41.72"><defs><style>.cls-1{fill:none;stroke:#fff;stroke-linecap:round;stroke-linejoin:round;stroke-width:0.9px;}.cls-2{fill:#dbdbdb;}.cls-2,.cls-3{opacity:0.5;}.cls-3{fill:#aac2e8;}</style></defs><title>1st</title><path id="_Контур_" data-name="&lt;Контур&gt;" class="cls-1" d="M379.93,636.25a2.57,2.57,0,0,1-.78,1.74h0a1.14,1.14,0,0,1-.76.33,1.11,1.11,0,0,1-.7-.28,2.54,2.54,0,0,1-.85-1.79,1.55,1.55,0,0,1,3.1,0Z" transform="translate(-374.68 -618.55)"/><path id="_Контур_2" data-name="&lt;Контур&gt;" class="cls-1" d="M381.78,639.86v1.89h-6.64v-1.89a1.45,1.45,0,0,1,1.08-1.4l1.46-.42a1.11,1.11,0,0,0,.7.28,1.14,1.14,0,0,0,.76-.33h0l1.56.47A1.45,1.45,0,0,1,381.78,639.86Z" transform="translate(-374.68 -618.55)"/><line id="_Контур_3" data-name="&lt;Контур&gt;" class="cls-1" x1="9.58" y1="31.13" x2="7.69" y2="32.75"/><circle id="_Контур_4" data-name="&lt;Контур&gt;" class="cls-2" cx="21.06" cy="21.32" r="5.85"/><path id="_Составной_контур_" data-name="&lt;Составной контур&gt;" class="cls-3" d="M395.75,631.3h0a8.57,8.57,0,1,1-6,2.44,8.5,8.5,0,0,1,6-2.44m0-.95a9.51,9.51,0,1,0,6.81,2.87,9.48,9.48,0,0,0-6.81-2.87Z" transform="translate(-374.68 -618.55)"/><circle id="_Контур_5" data-name="&lt;Контур&gt;" class="cls-2" cx="11.83" cy="11.22" r="0.57"/><circle id="_Контур_6" data-name="&lt;Контур&gt;" class="cls-2" cx="30.25" cy="11.22" r="0.57"/><circle id="_Контур_7" data-name="&lt;Контур&gt;" class="cls-2" cx="31.59" cy="30.21" r="0.57"/><circle id="_Контур_8" data-name="&lt;Контур&gt;" class="cls-2" cx="10.54" cy="30.21" r="0.57"/><path id="_Контур_9" data-name="&lt;Контур&gt;" class="cls-1" d="M412.78,644.3a17.62,17.62,0,0,1-11.18,12.18" transform="translate(-374.68 -618.55)"/><path id="_Контур_10" data-name="&lt;Контур&gt;" class="cls-1" d="M400.93,623a17.66,17.66,0,0,1,10.92,9.73" transform="translate(-374.68 -618.55)"/><path id="_Контур_11" data-name="&lt;Контур&gt;" class="cls-1" d="M379.63,632.77a17.71,17.71,0,0,1,10.66-9.64" transform="translate(-374.68 -618.55)"/><path id="_Контур_12" data-name="&lt;Контур&gt;" class="cls-1" d="M389.87,656.47a17.67,17.67,0,0,1-11.34-12.93" transform="translate(-374.68 -618.55)"/><path id="_Контур_13" data-name="&lt;Контур&gt;" class="cls-1" d="M403.06,638.44a7.45,7.45,0,1,1-8.74-5.88" transform="translate(-374.68 -618.55)"/><path id="_Контур_14" data-name="&lt;Контур&gt;" class="cls-1" d="M398,632.77a7.4,7.4,0,0,1,3.1,1.9,7.51,7.51,0,0,1,.52.59" transform="translate(-374.68 -618.55)"/><circle id="_Контур_15" data-name="&lt;Контур&gt;" class="cls-1" cx="395.75" cy="639.87" r="9.51" transform="translate(-709.06 -160.27) rotate(-44.3)"/><g id="_Группа_" data-name="&lt;Группа&gt;"><polyline id="_Контур_16" data-name="&lt;Контур&gt;" class="cls-1" points="19.32 17.86 19.2 17.86 19.85 17.86"/><path id="_Контур_17" data-name="&lt;Контур&gt;" class="cls-1" d="M394.54,636.42h1.72a1.47,1.47,0,0,1,1.54,1.4,1.34,1.34,0,0,1-.45,1,1.64,1.64,0,0,1-1.1.41h-1.72v-1.48h-1.07" transform="translate(-374.68 -618.55)"/><path id="_Контур_18" data-name="&lt;Контур&gt;" class="cls-1" d="M394.54,642.71h2.15a2,2,0,0,0,1.37-.51,1.67,1.67,0,0,0,.56-1.24,1.84,1.84,0,0,0-1.93-1.75h-.43" transform="translate(-374.68 -618.55)"/><line id="_Контур_19" data-name="&lt;Контур&gt;" class="cls-1" x1="19.85" y1="20.66" x2="19.85" y2="22.82"/><line id="_Контур_20" data-name="&lt;Контур&gt;" class="cls-1" x1="19.02" y1="22.82" x2="20.66" y2="22.82"/><polyline id="_Контур_21" data-name="&lt;Контур&gt;" class="cls-1" points="19.85 24.16 18.93 24.16 18.19 24.16"/><line id="_Контур_22" data-name="&lt;Контур&gt;" class="cls-1" x1="20.18" y1="17.86" x2="20.18" y2="17.09"/><line id="_Контур_23" data-name="&lt;Контур&gt;" class="cls-1" x1="21.68" y1="17.86" x2="21.68" y2="17.09"/><line id="_Контур_24" data-name="&lt;Контур&gt;" class="cls-1" x1="20.18" y1="24.98" x2="20.18" y2="24.21"/><line id="_Контур_25" data-name="&lt;Контур&gt;" class="cls-1" x1="21.68" y1="24.98" x2="21.68" y2="24.21"/></g><line id="_Контур_26" data-name="&lt;Контур&gt;" class="cls-1" x1="19.85" y1="19.18" x2="20.4" y2="19.18"/><g id="_Группа_2" data-name="&lt;Группа&gt;"><path id="_Контур_27" data-name="&lt;Контур&gt;" class="cls-1" d="M397.35,620.55a2.57,2.57,0,0,1-.78,1.74h0a1.14,1.14,0,0,1-.76.33,1.11,1.11,0,0,1-.7-.28,2.54,2.54,0,0,1-.85-1.79,1.55,1.55,0,1,1,3.1,0Z" transform="translate(-374.68 -618.55)"/><path id="_Контур_28" data-name="&lt;Контур&gt;" class="cls-1" d="M399.2,624.16V626h-6.64v-1.89a1.45,1.45,0,0,1,1.08-1.4l1.46-.42a1.11,1.11,0,0,0,.7.28,1.14,1.14,0,0,0,.76-.33h0l1.56.47A1.45,1.45,0,0,1,399.2,624.16Z" transform="translate(-374.68 -618.55)"/></g><g id="_Группа_3" data-name="&lt;Группа&gt;"><path id="_Контур_29" data-name="&lt;Контур&gt;" class="cls-1" d="M397.35,654.33a2.57,2.57,0,0,1-.78,1.74h0a1.14,1.14,0,0,1-.76.33,1.11,1.11,0,0,1-.7-.28,2.54,2.54,0,0,1-.85-1.79,1.55,1.55,0,0,1,3.1,0Z" transform="translate(-374.68 -618.55)"/><path id="_Контур_30" data-name="&lt;Контур&gt;" class="cls-1" d="M399.2,657.94v1.89h-6.64v-1.89a1.45,1.45,0,0,1,1.08-1.4l1.46-.42a1.11,1.11,0,0,0,.7.28,1.14,1.14,0,0,0,.76-.33h0l1.56.47A1.45,1.45,0,0,1,399.2,657.94Z" transform="translate(-374.68 -618.55)"/></g><g id="_Группа_4" data-name="&lt;Группа&gt;"><path id="_Контур_31" data-name="&lt;Контур&gt;" class="cls-1" d="M414.51,636.25a2.57,2.57,0,0,1-.78,1.74h0a1.14,1.14,0,0,1-.76.33,1.11,1.11,0,0,1-.7-.28,2.54,2.54,0,0,1-.85-1.79,1.55,1.55,0,0,1,3.1,0Z" transform="translate(-374.68 -618.55)"/><path id="_Контур_32" data-name="&lt;Контур&gt;" class="cls-1" d="M416.36,639.86v1.89h-6.64v-1.89a1.45,1.45,0,0,1,1.08-1.4l1.46-.42a1.11,1.11,0,0,0,.7.28,1.14,1.14,0,0,0,.76-.33h0l1.56.47A1.45,1.45,0,0,1,416.36,639.86Z" transform="translate(-374.68 -618.55)"/></g><line id="_Контур_33" data-name="&lt;Контур&gt;" class="cls-1" x1="20.95" y1="11.81" x2="20.95" y2="9.1"/><line id="_Контур_34" data-name="&lt;Контур&gt;" class="cls-1" x1="11.58" y1="22" x2="9.2" y2="22"/><line id="_Контур_35" data-name="&lt;Контур&gt;" class="cls-1" x1="30.57" y1="21.32" x2="32.9" y2="21.32"/><line id="_Контур_36" data-name="&lt;Контур&gt;" class="cls-1" x1="21.2" y1="30.83" x2="21.2" y2="32.7"/><line id="_Контур_37" data-name="&lt;Контур&gt;" class="cls-1" x1="11.01" y1="10.14" x2="9.19" y2="8.32"/><line id="_Контур_38" data-name="&lt;Контур&gt;" class="cls-1" x1="32.97" y1="8.34" x2="31.16" y2="10.17"/><line id="_Контур_39" data-name="&lt;Контур&gt;" class="cls-1" x1="34.43" y1="32.77" x2="32.54" y2="31.15"/><circle id="_Контур_40" data-name="&lt;Контур&gt;" class="cls-1" cx="11.83" cy="11.2" r="1.34"/><circle id="_Контур_41" data-name="&lt;Контур&gt;" class="cls-1" cx="30.25" cy="11.2" r="1.34"/><circle id="_Контур_42" data-name="&lt;Контур&gt;" class="cls-1" cx="385.23" cy="648.76" r="1.34" transform="translate(-379.31 -615.78) rotate(-0.41)"/><circle id="_Контур_43" data-name="&lt;Контур&gt;" class="cls-1" cx="31.59" cy="30.21" r="1.34"/></svg>