<svg id="Слой_1" data-name="Слой 1" xmlns="http://www.w3.org/2000/svg" viewBox="0 0 51.93 45.41"><defs><style>.cls-1,.cls-4,.cls-6{opacity:0.5;}.cls-2,.cls-6{fill:#aac2e8;}.cls-3,.cls-4{fill:#dbdbdb;}.cls-5{fill:none;stroke:#fff;stroke-linecap:round;stroke-linejoin:round;stroke-width:0.9px;}</style></defs><title>2nd</title><g id="_Группа_" data-name="&lt;Группа&gt;" class="cls-1"><rect id="_Прямоугольник_" data-name="&lt;Прямоугольник&gt;" class="cls-2" x="14.18" y="19.98" width="2.2" height="5.43"/><rect id="_Прямоугольник_2" data-name="&lt;Прямоугольник&gt;" class="cls-2" x="17.3" y="16.8" width="2.2" height="8.61"/><rect id="_Прямоугольник_3" data-name="&lt;Прямоугольник&gt;" class="cls-3" x="20.43" y="17.73" width="2.2" height="7.68"/><rect id="_Прямоугольник_4" data-name="&lt;Прямоугольник&gt;" class="cls-2" x="23.55" y="15.36" width="2.2" height="10.05"/><path id="_Контур_" data-name="&lt;Контур&gt;" class="cls-3" d="M607.1,293.43v4.34h-2.2q0-4.18,0-8.35a8.13,8.13,0,0,0,2.2,4Z" transform="translate(-578.23 -272.37)"/></g><path id="_Контур_2" data-name="&lt;Контур&gt;" class="cls-4" d="M617.61,293.82a8.29,8.29,0,0,1-3.22-16.27l0,.29a3.46,3.46,0,0,1-1.63,2.4A6.36,6.36,0,0,0,616,292a6.53,6.53,0,0,0,1.23-.12,6.37,6.37,0,0,0,5-5,3.6,3.6,0,0,1,2-2.6h0A8.31,8.31,0,0,1,617.61,293.82Z" transform="translate(-578.23 -272.37)"/><path id="_Контур_3" data-name="&lt;Контур&gt;" class="cls-5" d="M624.15,284.09a8.29,8.29,0,1,1-9.73-6.54" transform="translate(-578.23 -272.37)"/><g id="_Группа_2" data-name="&lt;Группа&gt;"><g id="_Группа_3" data-name="&lt;Группа&gt;"><circle id="_Контур_4" data-name="&lt;Контур&gt;" class="cls-5" cx="628.81" cy="290.39" r="0.09" transform="translate(-522.58 406.88) rotate(-58.94)"/><circle id="_Контур_5" data-name="&lt;Контур&gt;" class="cls-5" cx="629.35" cy="288.52" r="0.09" transform="translate(-458.94 484.31) rotate(-67.18)"/><circle id="_Контур_6" data-name="&lt;Контур&gt;" class="cls-5" cx="629.62" cy="286.6" r="0.09" transform="translate(-383.77 552) rotate(-75.49)"/><circle id="_Контур_7" data-name="&lt;Контур&gt;" class="cls-5" cx="629.61" cy="284.66" r="0.09" transform="translate(-301.33 606.45) rotate(-83.63)"/><circle id="_Контур_8" data-name="&lt;Контур&gt;" class="cls-5" cx="629.32" cy="282.74" r="0.09" transform="translate(-586.47 -253.26) rotate(-1.73)"/><circle id="_Контур_9" data-name="&lt;Контур&gt;" class="cls-5" cx="628.77" cy="280.88" r="0.09" transform="matrix(0.99, -0.17, 0.17, 0.99, -617.05, -160.51)"/><circle id="_Контур_10" data-name="&lt;Контур&gt;" class="cls-5" cx="627.95" cy="279.12" r="0.09" transform="translate(-633.84 -63.81) rotate(-18.07)"/><circle id="_Контур_11" data-name="&lt;Контур&gt;" class="cls-5" cx="626.89" cy="277.49" r="0.09" transform="translate(-636.31 33.61) rotate(-26.26)"/><circle id="_Контур_12" data-name="&lt;Контур&gt;" class="cls-5" cx="625.62" cy="276.03" r="0.09" transform="translate(-624.69 129.73) rotate(-34.43)"/><circle id="_Контур_13" data-name="&lt;Контур&gt;" class="cls-5" cx="624.16" cy="274.75" r="0.09" transform="translate(-599.81 221.68) rotate(-42.52)"/><circle id="_Контур_14" data-name="&lt;Контур&gt;" class="cls-5" cx="622.52" cy="273.71" r="0.09" transform="translate(-562.53 308.28) rotate(-50.56)"/><circle id="_Контур_15" data-name="&lt;Контур&gt;" class="cls-5" cx="620.75" cy="272.91" r="0.09" transform="translate(-512.74 389.76) rotate(-58.76)"/></g><circle id="_Эллипс_" data-name="&lt;Эллипс&gt;" class="cls-5" cx="616.01" cy="285.68" r="10.59" transform="translate(-621.69 -148.51) rotate(-11.09)"/><g id="_Группа_4" data-name="&lt;Группа&gt;"><g id="_Группа_5" data-name="&lt;Группа&gt;"><line id="_Контур_16" data-name="&lt;Контур&gt;" class="cls-5" x1="36.18" y1="10.1" x2="36.81" y2="10.1"/><path id="_Контур_17" data-name="&lt;Контур&gt;" class="cls-5" d="M615,282.47h1.66a1.42,1.42,0,0,1,1.49,1.34,1.28,1.28,0,0,1-.43,1,1.57,1.57,0,0,1-1.05.39H615v-1.42h-1" transform="translate(-578.23 -272.37)"/><path id="_Контур_18" data-name="&lt;Контур&gt;" class="cls-5" d="M615,288.52h2.07a2,2,0,0,0,1.32-.49,1.61,1.61,0,0,0,.54-1.19,1.77,1.77,0,0,0-1.86-1.68h-.42" transform="translate(-578.23 -272.37)"/><line id="_Контур_19" data-name="&lt;Контур&gt;" class="cls-5" x1="36.81" y1="12.79" x2="36.81" y2="14.86"/><line id="_Контур_20" data-name="&lt;Контур&gt;" class="cls-5" x1="35.86" y1="14.86" x2="37.59" y2="14.86"/><polyline id="_Контур_21" data-name="&lt;Контур&gt;" class="cls-5" points="36.81 16.15 35.92 16.15 35.21 16.15"/><line id="_Контур_22" data-name="&lt;Контур&gt;" class="cls-5" x1="37.12" y1="10.1" x2="37.12" y2="9.36"/><line id="_Контур_23" data-name="&lt;Контур&gt;" class="cls-5" x1="38.56" y1="10.1" x2="38.56" y2="9.36"/><line id="_Контур_24" data-name="&lt;Контур&gt;" class="cls-5" x1="37.12" y1="16.95" x2="37.12" y2="16.21"/><line id="_Контур_25" data-name="&lt;Контур&gt;" class="cls-5" x1="38.56" y1="16.95" x2="38.56" y2="16.21"/></g><line id="_Контур_26" data-name="&lt;Контур&gt;" class="cls-5" x1="36.81" y1="11.37" x2="37.31" y2="11.37"/></g></g><g id="_Группа_6" data-name="&lt;Группа&gt;"><g id="_Группа_7" data-name="&lt;Группа&gt;"><polyline id="_Контур_27" data-name="&lt;Контур&gt;" class="cls-5" points="29.07 4.27 4.39 4.27 4.39 30.76 22.33 30.76 45.38 30.76 45.38 26.21 45.38 23.27"/><polyline id="_Контур_28" data-name="&lt;Контур&gt;" class="cls-5" points="41.44 25.37 41.44 27.43 23.42 27.43 8.33 27.43 8.33 7.6 25.99 7.6"/></g><polyline id="_Контур_29" data-name="&lt;Контур&gt;" class="cls-5" points="4.38 30.75 0.45 42.53 0.45 44.96 23.28 44.96"/><line id="_Контур_30" data-name="&lt;Контур&gt;" class="cls-5" x1="0.45" y1="42.53" x2="26.65" y2="42.53"/><polyline id="_Контур_31" data-name="&lt;Контур&gt;" class="cls-5" points="45.35 30.75 49.28 42.53 49.28 44.96 23.28 44.96"/><line id="_Контур_32" data-name="&lt;Контур&gt;" class="cls-5" x1="49.28" y1="42.53" x2="26.65" y2="42.53"/></g><polygon id="_Контур_33" data-name="&lt;Контур&gt;" class="cls-6" points="13.99 38.65 34.22 38.65 34.93 40.54 13.36 40.54 13.99 38.65"/><line id="_Контур_34" data-name="&lt;Контур&gt;" class="cls-5" x1="12.77" y1="33.67" x2="13.99" y2="33.67"/><line id="_Контур_35" data-name="&lt;Контур&gt;" class="cls-5" x1="17.18" y1="33.67" x2="18.4" y2="33.67"/><line id="_Контур_36" data-name="&lt;Контур&gt;" class="cls-5" x1="21.59" y1="33.67" x2="22.81" y2="33.67"/><line id="_Контур_37" data-name="&lt;Контур&gt;" class="cls-5" x1="25.99" y1="33.67" x2="27.21" y2="33.67"/><line id="_Контур_38" data-name="&lt;Контур&gt;" class="cls-5" x1="30.4" y1="33.67" x2="31.62" y2="33.67"/><line id="_Контур_39" data-name="&lt;Контур&gt;" class="cls-5" x1="34.81" y1="33.67" x2="36.03" y2="33.67"/><line id="_Контур_40" data-name="&lt;Контур&gt;" class="cls-5" x1="12.77" y1="35.58" x2="13.99" y2="35.58"/><line id="_Контур_41" data-name="&lt;Контур&gt;" class="cls-5" x1="17.18" y1="35.58" x2="18.4" y2="35.58"/><line id="_Контур_42" data-name="&lt;Контур&gt;" class="cls-5" x1="21.59" y1="35.58" x2="22.81" y2="35.58"/><line id="_Контур_43" data-name="&lt;Контур&gt;" class="cls-5" x1="25.99" y1="35.58" x2="27.21" y2="35.58"/><line id="_Контур_44" data-name="&lt;Контур&gt;" class="cls-5" x1="30.4" y1="35.58" x2="31.62" y2="35.58"/><line id="_Контур_45" data-name="&lt;Контур&gt;" class="cls-5" x1="34.81" y1="35.58" x2="36.03" y2="35.58"/><line id="_Контур_46" data-name="&lt;Контур&gt;" class="cls-5" x1="10.77" y1="21.79" x2="12.06" y2="21.79"/><line id="_Контур_47" data-name="&lt;Контур&gt;" class="cls-5" x1="10.77" y1="24.5" x2="12.06" y2="24.5"/><line id="_Контур_48" data-name="&lt;Контур&gt;" class="cls-5" x1="10.77" y1="16.61" x2="12.06" y2="16.61"/><line id="_Контур_49" data-name="&lt;Контур&gt;" class="cls-5" x1="10.77" y1="14.33" x2="12.06" y2="14.33"/><line id="_Контур_50" data-name="&lt;Контур&gt;" class="cls-5" x1="10.77" y1="19.32" x2="12.06" y2="19.32"/><line id="_Контур_51" data-name="&lt;Контур&gt;" class="cls-5" x1="10.77" y1="11.05" x2="22.35" y2="11.05"/></svg>