<svg id="Слой_1" data-name="Слой 1" xmlns="http://www.w3.org/2000/svg" viewBox="0 0 46.71 40.49"><defs><style>.cls-1{fill:#aac2e8;}.cls-1,.cls-3{opacity:0.5;}.cls-2{fill:none;stroke:#fff;stroke-linecap:round;stroke-linejoin:round;stroke-width:0.9px;}.cls-3{fill:#dbdbdb;}</style></defs><title>3rd</title><path id="_Контур_" data-name="&lt;Контур&gt;" class="cls-1" d="M613,269.8l-3.47-3.22a1.2,1.2,0,0,0-.82-.32H596.23a1.2,1.2,0,0,0-1.2,1.2v19.12a1.2,1.2,0,0,0,1.2,1.2h12.15a13.08,13.08,0,0,1-1.81-9C607.52,273.26,612.3,270.23,613,269.8Z" transform="translate(-585.44 -256.77)"/><g id="_Группа_" data-name="&lt;Группа&gt;"><circle id="_Контур_2" data-name="&lt;Контур&gt;" class="cls-2" cx="601.06" cy="277.52" r="0.1" transform="translate(-369.19 559.47) rotate(-79.25)"/></g><g id="_Группа_2" data-name="&lt;Группа&gt;"><circle id="_Контур_3" data-name="&lt;Контур&gt;" class="cls-2" cx="595.42" cy="282" r="0.1" transform="translate(-378.23 557.54) rotate(-79.24)"/><circle id="_Контур_4" data-name="&lt;Контур&gt;" class="cls-2" cx="597.73" cy="282" r="0.1" transform="translate(-376.55 559.67) rotate(-79.22)"/></g><g id="_Группа_3" data-name="&lt;Группа&gt;"><circle id="_Контур_5" data-name="&lt;Контур&gt;" class="cls-2" cx="601.48" cy="285.97" r="0.1" transform="translate(-377.15 566.75) rotate(-79.25)"/></g><circle id="_Контур_6" data-name="&lt;Контур&gt;" class="cls-2" cx="13.57" cy="17.57" r="1.45"/><g id="_Группа_4" data-name="&lt;Группа&gt;"><circle id="_Контур_7" data-name="&lt;Контур&gt;" class="cls-2" cx="603.66" cy="269.21" r="0.1" transform="translate(-358.9 555.26) rotate(-79.25)"/><circle id="_Контур_8" data-name="&lt;Контур&gt;" class="cls-2" cx="605.97" cy="269.21" r="0.1" transform="translate(-357.28 557.36) rotate(-79.22)"/></g><path id="_Составной_контур_" data-name="&lt;Составной контур&gt;" class="cls-3" d="M620.44,272.58a8.65,8.65,0,1,1-6.19,2.61,8.6,8.6,0,0,1,6.19-2.61m0-2.61a11.26,11.26,0,1,0,7.86,3.2,11.23,11.23,0,0,0-7.86-3.2Z" transform="translate(-585.44 -256.77)"/><line id="_Контур_9" data-name="&lt;Контур&gt;" class="cls-2" x1="33.67" y1="22.11" x2="34.33" y2="22.11"/><path id="_Контур_10" data-name="&lt;Контур&gt;" class="cls-2" d="M628.88,279.58a8.6,8.6,0,1,1-10.09-6.78" transform="translate(-585.44 -256.77)"/><path id="_Контур_11" data-name="&lt;Контур&gt;" class="cls-2" d="M623,273a8.55,8.55,0,0,1,3.57,2.2,8.64,8.64,0,0,1,.6.69" transform="translate(-585.44 -256.77)"/><circle id="_Эллипс_" data-name="&lt;Эллипс&gt;" class="cls-2" cx="620.44" cy="281.23" r="11.26" transform="translate(-599.59 272.13) rotate(-45.7)"/><g id="_Группа_5" data-name="&lt;Группа&gt;"><polyline id="_Контур_12" data-name="&lt;Контур&gt;" class="cls-2" points="33.02 20.5 32.87 20.5 33.67 20.5"/><path id="_Контур_13" data-name="&lt;Контур&gt;" class="cls-2" d="M619.11,277.26h2.11a1.8,1.8,0,0,1,1.89,1.71,1.63,1.63,0,0,1-.55,1.21,2,2,0,0,1-1.34.5h-2.11v-1.81H617.8" transform="translate(-585.44 -256.77)"/><path id="_Контур_14" data-name="&lt;Контур&gt;" class="cls-2" d="M619.11,285h2.64a2.5,2.5,0,0,0,1.68-.62,2,2,0,0,0,.69-1.52,2.26,2.26,0,0,0-2.36-2.14h-.53" transform="translate(-585.44 -256.77)"/><line id="_Контур_15" data-name="&lt;Контур&gt;" class="cls-2" x1="33.67" y1="23.92" x2="33.67" y2="26.56"/><line id="_Контур_16" data-name="&lt;Контур&gt;" class="cls-2" x1="32.65" y1="26.56" x2="34.66" y2="26.56"/><polyline id="_Контур_17" data-name="&lt;Контур&gt;" class="cls-2" points="33.67 28.2 32.54 28.2 31.64 28.2"/><line id="_Контур_18" data-name="&lt;Контур&gt;" class="cls-2" x1="34.07" y1="20.5" x2="34.07" y2="19.55"/><line id="_Контур_19" data-name="&lt;Контур&gt;" class="cls-2" x1="35.9" y1="20.5" x2="35.9" y2="19.55"/><line id="_Контур_20" data-name="&lt;Контур&gt;" class="cls-2" x1="34.07" y1="29.21" x2="34.07" y2="28.27"/><line id="_Контур_21" data-name="&lt;Контур&gt;" class="cls-2" x1="35.9" y1="29.21" x2="35.9" y2="28.27"/></g><polyline id="_Контур_22" data-name="&lt;Контур&gt;" class="cls-2" points="15.02 17.57 22.07 17.57 23.31 18.72"/><g id="_Группа_6" data-name="&lt;Группа&gt;"><circle id="_Контур_23" data-name="&lt;Контур&gt;" class="cls-2" cx="13.98" cy="32.31" r="1.45"/><polyline id="_Контур_24" data-name="&lt;Контур&gt;" class="cls-2" points="15.43 32.31 22.48 32.31 23.91 31.33"/></g><circle id="_Контур_25" data-name="&lt;Контур&gt;" class="cls-2" cx="16.88" cy="25.24" r="1.45"/><line id="_Контур_26" data-name="&lt;Контур&gt;" class="cls-2" x1="18.33" y1="25.24" x2="21.73" y2="25.24"/><polyline id="_Контур_27" data-name="&lt;Контур&gt;" class="cls-2" points="22.61 28.26 21.52 29.03 17.84 29.03"/><polyline id="_Контур_28" data-name="&lt;Контур&gt;" class="cls-2" points="22.08 21.59 21.2 20.76 17.52 20.76"/><line id="_Контур_29" data-name="&lt;Контур&gt;" class="cls-2" x1="21.01" y1="15" x2="19.05" y2="15"/><polyline id="_Контур_30" data-name="&lt;Контур&gt;" class="cls-2" points="25.37 15.82 23.31 14.19 23.36 12.44"/><line id="_Контур_31" data-name="&lt;Контур&gt;" class="cls-2" x1="26.98" y1="14.21" x2="25.89" y2="13.28"/><g id="_Группа_7" data-name="&lt;Группа&gt;"><path id="_Контур_32" data-name="&lt;Контур&gt;" class="cls-2" d="M622.72,267.84V266.7A6.72,6.72,0,0,0,616,260H595.37a6.72,6.72,0,0,0-6.72,6.72v20.63a6.72,6.72,0,0,0,6.72,6.72h18.28" transform="translate(-585.44 -256.77)"/><g id="_Группа_8" data-name="&lt;Группа&gt;"><line id="_Контур_33" data-name="&lt;Контур&gt;" class="cls-2" x1="7.58" y1="3.21" x2="7.58" y2="0.45"/><line id="_Контур_34" data-name="&lt;Контур&gt;" class="cls-2" x1="10.71" y1="3.21" x2="10.71" y2="0.45"/><line id="_Контур_35" data-name="&lt;Контур&gt;" class="cls-2" x1="13.84" y1="3.21" x2="13.84" y2="0.45"/><line id="_Контур_36" data-name="&lt;Контур&gt;" class="cls-2" x1="16.96" y1="3.21" x2="16.96" y2="0.45"/><line id="_Контур_37" data-name="&lt;Контур&gt;" class="cls-2" x1="20.09" y1="3.21" x2="20.09" y2="0.45"/><line id="_Контур_38" data-name="&lt;Контур&gt;" class="cls-2" x1="23.22" y1="3.21" x2="23.22" y2="0.45"/><line id="_Контур_39" data-name="&lt;Контур&gt;" class="cls-2" x1="26.35" y1="3.21" x2="26.35" y2="0.45"/><line id="_Контур_40" data-name="&lt;Контур&gt;" class="cls-2" x1="29.48" y1="3.21" x2="29.48" y2="0.45"/><line id="_Контур_41" data-name="&lt;Контур&gt;" class="cls-2" x1="32.61" y1="3.21" x2="32.61" y2="0.45"/></g><g id="_Группа_9" data-name="&lt;Группа&gt;"><line id="_Контур_42" data-name="&lt;Контур&gt;" class="cls-2" x1="7.58" y1="40.04" x2="7.58" y2="37.28"/><line id="_Контур_43" data-name="&lt;Контур&gt;" class="cls-2" x1="10.71" y1="40.04" x2="10.71" y2="37.28"/><line id="_Контур_44" data-name="&lt;Контур&gt;" class="cls-2" x1="13.84" y1="40.04" x2="13.84" y2="37.28"/><line id="_Контур_45" data-name="&lt;Контур&gt;" class="cls-2" x1="16.96" y1="40.04" x2="16.96" y2="37.28"/><line id="_Контур_46" data-name="&lt;Контур&gt;" class="cls-2" x1="20.09" y1="40.04" x2="20.09" y2="37.28"/><line id="_Контур_47" data-name="&lt;Контур&gt;" class="cls-2" x1="23.22" y1="40.04" x2="23.22" y2="37.28"/><line id="_Контур_48" data-name="&lt;Контур&gt;" class="cls-2" x1="26.35" y1="40.04" x2="26.35" y2="37.28"/></g><g id="_Группа_10" data-name="&lt;Группа&gt;"><line id="_Контур_49" data-name="&lt;Контур&gt;" class="cls-2" x1="0.45" y1="7.56" x2="3.21" y2="7.56"/><line id="_Контур_50" data-name="&lt;Контур&gt;" class="cls-2" x1="0.45" y1="10.69" x2="3.21" y2="10.69"/><line id="_Контур_51" data-name="&lt;Контур&gt;" class="cls-2" x1="0.45" y1="13.82" x2="3.21" y2="13.82"/><line id="_Контур_52" data-name="&lt;Контур&gt;" class="cls-2" x1="0.45" y1="16.95" x2="3.21" y2="16.95"/><line id="_Контур_53" data-name="&lt;Контур&gt;" class="cls-2" x1="0.45" y1="20.08" x2="3.21" y2="20.08"/><line id="_Контур_54" data-name="&lt;Контур&gt;" class="cls-2" x1="0.45" y1="23.2" x2="3.21" y2="23.2"/><line id="_Контур_55" data-name="&lt;Контур&gt;" class="cls-2" x1="0.45" y1="26.33" x2="3.21" y2="26.33"/><line id="_Контур_56" data-name="&lt;Контур&gt;" class="cls-2" x1="0.45" y1="29.46" x2="3.21" y2="29.46"/><line id="_Контур_57" data-name="&lt;Контур&gt;" class="cls-2" x1="0.45" y1="32.59" x2="3.21" y2="32.59"/></g><path id="_Контур_58" data-name="&lt;Контур&gt;" class="cls-2" d="M594.89,289.69a1.88,1.88,0,0,1-1.88-1.88v-21.6a1.88,1.88,0,0,1,1.88-1.88H609a1.88,1.88,0,0,1,1.3.52l3.37,3.22" transform="translate(-585.44 -256.77)"/></g></svg>