<svg id="Слой_1" data-name="Слой 1" xmlns="http://www.w3.org/2000/svg" viewBox="0 0 39.01 53.14"><defs><style>.cls-1{fill:#aac2e8;}.cls-1,.cls-2{opacity:0.5;}.cls-2{fill:#dbdbdb;}.cls-3{fill:none;stroke:#fff;stroke-linecap:round;stroke-linejoin:round;stroke-width:0.9px;}</style></defs><title>4th</title><circle id="_Контур_" data-name="&lt;Контур&gt;" class="cls-1" cx="13.18" cy="40.39" r="1.8"/><circle id="_Контур_2" data-name="&lt;Контур&gt;" class="cls-1" cx="29.17" cy="40.39" r="1.8"/><path id="_Контур_3" data-name="&lt;Контур&gt;" class="cls-2" d="M589.69,263.33a6.64,6.64,0,0,1-.47,2.47H576.39a6.64,6.64,0,0,1-.47-2.47,6.89,6.89,0,1,1,13.77,0Z" transform="translate(-561.87 -235.91)"/><rect id="_Прямоугольник_" data-name="&lt;Прямоугольник&gt;" class="cls-3" x="3.15" y="31.79" width="35.41" height="17.2"/><polyline id="_Контур_4" data-name="&lt;Контур&gt;" class="cls-3" points="3.15 31.79 3.15 28.5 0.45 28.5"/><line id="_Контур_5" data-name="&lt;Контур&gt;" class="cls-3" x1="3.15" y1="48.99" x2="3.15" y2="52.69"/><polyline id="_Контур_6" data-name="&lt;Контур&gt;" class="cls-3" points="3.01 33.87 0.86 33.87 0.86 35.99 3.15 35.99"/><polyline id="_Контур_7" data-name="&lt;Контур&gt;" class="cls-3" points="3.15 39.38 0.86 39.38 0.86 45.09 3.15 45.09"/><g id="_Группа_" data-name="&lt;Группа&gt;"><path id="_Контур_8" data-name="&lt;Контур&gt;" class="cls-3" d="M575,274.5a3.59,3.59,0,0,0,1.77-2,3.51,3.51,0,0,0,0-2.1,13.93,13.93,0,0,0-3.87.22,3,3,0,0,1,1.71,1.52" transform="translate(-561.87 -235.91)"/><path id="_Контур_9" data-name="&lt;Контур&gt;" class="cls-3" d="M573.51,275.37a3.59,3.59,0,0,0-.85-2.54,3.51,3.51,0,0,0-1.8-1.08,13.93,13.93,0,0,0-1.75,3.46,2.68,2.68,0,0,1,2.07-.71" transform="translate(-561.87 -235.91)"/><path id="_Контур_10" data-name="&lt;Контур&gt;" class="cls-3" d="M573.5,277.12a3.59,3.59,0,0,0-2.62-.54,3.51,3.51,0,0,0-1.84,1,13.92,13.92,0,0,0,2.12,3.25,3.51,3.51,0,0,1,.62-2.28" transform="translate(-561.87 -235.91)"/><path id="_Контур_11" data-name="&lt;Контур&gt;" class="cls-3" d="M575,278a3.59,3.59,0,0,0-1.78,2,3.51,3.51,0,0,0,0,2.1,13.93,13.93,0,0,0,3.87-.2,2.92,2.92,0,0,1-1.52-1.54" transform="translate(-561.87 -235.91)"/><path id="_Контур_12" data-name="&lt;Контур&gt;" class="cls-3" d="M576.54,277.14a3.59,3.59,0,0,0,.83,2.54,3.51,3.51,0,0,0,1.8,1.09,13.93,13.93,0,0,0,1.77-3.45,2.59,2.59,0,0,1-2,.57" transform="translate(-561.87 -235.91)"/><path id="_Контур_13" data-name="&lt;Контур&gt;" class="cls-3" d="M576.55,275.39a3.59,3.59,0,0,0,2.62.55,3.51,3.51,0,0,0,1.85-1,13.92,13.92,0,0,0-2.1-3.26,2.44,2.44,0,0,1-.41,2.05" transform="translate(-561.87 -235.91)"/><circle id="_Контур_14" data-name="&lt;Контур&gt;" class="cls-3" cx="575.02" cy="276.25" r="1.75" transform="translate(-623.39 82.48) rotate(-29.45)"/></g><g id="_Группа_2" data-name="&lt;Группа&gt;"><path id="_Контур_15" data-name="&lt;Контур&gt;" class="cls-3" d="M591,274.5a3.59,3.59,0,0,0,1.77-2,3.51,3.51,0,0,0,0-2.1,13.93,13.93,0,0,0-3.87.22,3,3,0,0,1,1.71,1.52" transform="translate(-561.87 -235.91)"/><path id="_Контур_16" data-name="&lt;Контур&gt;" class="cls-3" d="M589.49,275.37a3.59,3.59,0,0,0-.85-2.54,3.51,3.51,0,0,0-1.8-1.08,13.92,13.92,0,0,0-1.75,3.46,2.68,2.68,0,0,1,2.07-.71" transform="translate(-561.87 -235.91)"/><path id="_Контур_17" data-name="&lt;Контур&gt;" class="cls-3" d="M589.48,277.12a3.59,3.59,0,0,0-2.62-.54,3.51,3.51,0,0,0-1.84,1,13.93,13.93,0,0,0,2.12,3.25,3.52,3.52,0,0,1,.62-2.28" transform="translate(-561.87 -235.91)"/><path id="_Контур_18" data-name="&lt;Контур&gt;" class="cls-3" d="M591,278a3.59,3.59,0,0,0-1.78,2,3.51,3.51,0,0,0,0,2.1,13.93,13.93,0,0,0,3.87-.2,2.92,2.92,0,0,1-1.52-1.54" transform="translate(-561.87 -235.91)"/><path id="_Контур_19" data-name="&lt;Контур&gt;" class="cls-3" d="M592.52,277.14a3.59,3.59,0,0,0,.83,2.54,3.51,3.51,0,0,0,1.8,1.09,13.93,13.93,0,0,0,1.77-3.45,2.59,2.59,0,0,1-2,.57" transform="translate(-561.87 -235.91)"/><path id="_Контур_20" data-name="&lt;Контур&gt;" class="cls-3" d="M592.53,275.39a3.59,3.59,0,0,0,2.62.55,3.51,3.51,0,0,0,1.85-1,13.92,13.92,0,0,0-2.1-3.26,2.44,2.44,0,0,1-.41,2.05" transform="translate(-561.87 -235.91)"/><circle id="_Контур_21" data-name="&lt;Контур&gt;" class="cls-3" cx="591" cy="276.25" r="1.75" transform="translate(-621.33 90.35) rotate(-29.45)"/></g><g id="_Группа_3" data-name="&lt;Группа&gt;"><g id="_Группа_4" data-name="&lt;Группа&gt;"><circle id="_Контур_22" data-name="&lt;Контур&gt;" class="cls-3" cx="574.82" cy="288.43" r="0.1" transform="translate(-377.91 563.25) rotate(-79.22)"/><circle id="_Контур_23" data-name="&lt;Контур&gt;" class="cls-3" cx="577.13" cy="288.43" r="0.1" transform="translate(-376.03 565.51) rotate(-79.22)"/><circle id="_Контур_24" data-name="&lt;Контур&gt;" class="cls-3" cx="579.43" cy="288.43" r="0.1" transform="translate(-374.16 567.78) rotate(-79.22)"/><circle id="_Контур_25" data-name="&lt;Контур&gt;" class="cls-3" cx="581.74" cy="288.43" r="0.1" transform="translate(-372.28 570.05) rotate(-79.22)"/><circle id="_Контур_26" data-name="&lt;Контур&gt;" class="cls-3" cx="584.05" cy="288.43" r="0.1" transform="translate(-370.41 572.31) rotate(-79.22)"/><circle id="_Контур_27" data-name="&lt;Контур&gt;" class="cls-3" cx="586.35" cy="288.43" r="0.1" transform="translate(-368.53 574.58) rotate(-79.22)"/><circle id="_Контур_28" data-name="&lt;Контур&gt;" class="cls-3" cx="588.63" cy="288.43" r="0.1" transform="translate(-366.73 576.78) rotate(-79.21)"/><circle id="_Контур_29" data-name="&lt;Контур&gt;" class="cls-3" cx="590.94" cy="288.43" r="0.1" transform="translate(-364.8 579.08) rotate(-79.22)"/></g><polyline id="_Контур_30" data-name="&lt;Контур&gt;" class="cls-3" points="30.62 50.79 11.09 50.79 11.09 52.42"/><line id="_Контур_31" data-name="&lt;Контур&gt;" class="cls-3" x1="30.62" y1="50.79" x2="30.62" y2="52.42"/></g><g id="_Группа_5" data-name="&lt;Группа&gt;"><circle id="_Контур_32" data-name="&lt;Контур&gt;" class="cls-3" cx="584.84" cy="236.46" r="0.11" transform="translate(-595.76 -122.44) rotate(-10.77)"/><circle id="_Контур_33" data-name="&lt;Контур&gt;" class="cls-3" cx="584.84" cy="238.82" r="0.11" transform="translate(-596.2 -122.39) rotate(-10.77)"/><circle id="_Контур_34" data-name="&lt;Контур&gt;" class="cls-3" cx="584.84" cy="241.18" r="0.11" transform="translate(-596.64 -122.35) rotate(-10.77)"/></g><g id="_Группа_6" data-name="&lt;Группа&gt;"><circle id="_Контур_35" data-name="&lt;Контур&gt;" class="cls-3" cx="578.82" cy="244.4" r="0.11" transform="translate(-597.3 -123.64) rotate(-10.75)"/></g><g id="_Группа_7" data-name="&lt;Группа&gt;"><circle id="_Контур_36" data-name="&lt;Контур&gt;" class="cls-3" cx="579.95" cy="238.95" r="0.11" transform="translate(-596.25 -123.6) rotate(-10.74)"/><circle id="_Контур_37" data-name="&lt;Контур&gt;" class="cls-3" cx="579.95" cy="241.31" r="0.11" transform="translate(-596.75 -123.27) rotate(-10.77)"/></g><g id="_Группа_8" data-name="&lt;Группа&gt;"><circle id="_Контур_38" data-name="&lt;Контур&gt;" class="cls-3" cx="586.54" cy="244.5" r="0.11" transform="matrix(0.98, -0.19, 0.19, 0.98, -597.24, -121.92)"/></g><circle id="_Контур_39" data-name="&lt;Контур&gt;" class="cls-1" cx="13.92" cy="6.01" r="1.48"/><circle id="_Контур_40" data-name="&lt;Контур&gt;" class="cls-1" cx="20.67" cy="9.54" r="1.48"/><circle id="_Контур_41" data-name="&lt;Контур&gt;" class="cls-1" cx="27.66" cy="6.09" r="1.48"/><circle id="_Контур_42" data-name="&lt;Контур&gt;" class="cls-3" cx="13.92" cy="6.01" r="1.48"/><line id="_Контур_43" data-name="&lt;Контур&gt;" class="cls-3" x1="20.67" y1="6.51" x2="20.67" y2="4.51"/><path id="_Контур_44" data-name="&lt;Контур&gt;" class="cls-3" d="M574.8,266.06a8.43,8.43,0,0,1,6.37-10.94" transform="translate(-561.87 -235.91)"/><path id="_Контур_45" data-name="&lt;Контур&gt;" class="cls-3" d="M591.06,261.76a8.37,8.37,0,0,1-.28,4.29" transform="translate(-561.87 -235.91)"/><path id="_Контур_46" data-name="&lt;Контур&gt;" class="cls-3" d="M585.32,255.35a8.43,8.43,0,0,1,4.09,2.82" transform="translate(-561.87 -235.91)"/><path id="_Контур_47" data-name="&lt;Контур&gt;" class="cls-3" d="M572,266.05a11,11,0,1,1,21.45,0" transform="translate(-561.87 -235.91)"/><g id="_Группа_9" data-name="&lt;Группа&gt;"><g id="_Группа_10" data-name="&lt;Группа&gt;"><polyline id="_Контур_48" data-name="&lt;Контур&gt;" class="cls-3" points="18.98 23.59 18.84 23.59 19.62 23.59"/><path id="_Контур_49" data-name="&lt;Контур&gt;" class="cls-3" d="M581.49,259.49h2.06a1.77,1.77,0,0,1,1.85,1.68,1.6,1.6,0,0,1-.54,1.19,2,2,0,0,1-1.31.49h-2.06v-1.77h-1.28" transform="translate(-561.87 -235.91)"/><path id="_Контур_50" data-name="&lt;Контур&gt;" class="cls-3" d="M586.12,265.92a2,2,0,0,0,.26-1,2.21,2.21,0,0,0-2.32-2.1h-.52" transform="translate(-561.87 -235.91)"/><line id="_Контур_51" data-name="&lt;Контур&gt;" class="cls-3" x1="19.62" y1="26.94" x2="19.62" y2="29.53"/><line id="_Контур_52" data-name="&lt;Контур&gt;" class="cls-3" x1="18.63" y1="29.53" x2="20.59" y2="29.53"/><line id="_Контур_53" data-name="&lt;Контур&gt;" class="cls-3" x1="20.01" y1="23.59" x2="20.01" y2="22.66"/><line id="_Контур_54" data-name="&lt;Контур&gt;" class="cls-3" x1="21.81" y1="23.59" x2="21.81" y2="22.66"/><path id="_Контур_55" data-name="&lt;Контур&gt;" class="cls-3" d="M581.88,268" transform="translate(-561.87 -235.91)"/></g><line id="_Контур_56" data-name="&lt;Контур&gt;" class="cls-3" x1="19.62" y1="25.16" x2="20.27" y2="25.16"/></g><polyline id="_Контур_57" data-name="&lt;Контур&gt;" class="cls-3" points="13.93 7.57 13.93 14.77 15.1 16.04"/><g id="_Группа_11" data-name="&lt;Группа&gt;"><circle id="_Контур_58" data-name="&lt;Контур&gt;" class="cls-3" cx="27.66" cy="6.09" r="1.48"/><polyline id="_Контур_59" data-name="&lt;Контур&gt;" class="cls-3" points="27.66 7.57 27.66 14.77 26.66 16.24"/></g><circle id="_Контур_60" data-name="&lt;Контур&gt;" class="cls-3" cx="20.67" cy="9.54" r="1.48"/><line id="_Контур_61" data-name="&lt;Контур&gt;" class="cls-3" x1="20.67" y1="11.02" x2="20.67" y2="14.49"/><polyline id="_Контур_62" data-name="&lt;Контур&gt;" class="cls-3" points="23.71 15.31 24.5 14.19 24.5 10.44"/><polyline id="_Контур_63" data-name="&lt;Контур&gt;" class="cls-3" points="17.8 15.1 16.95 14.19 16.95 10.44"/><line id="_Контур_64" data-name="&lt;Контур&gt;" class="cls-3" x1="10.95" y1="22.66" x2="10.95" y2="17.53"/><line id="_Контур_65" data-name="&lt;Контур&gt;" class="cls-3" x1="10.95" y1="14.78" x2="10.95" y2="10.75"/><line id="_Контур_66" data-name="&lt;Контур&gt;" class="cls-3" x1="30.62" y1="22.45" x2="30.62" y2="17.53"/><line id="_Контур_67" data-name="&lt;Контур&gt;" class="cls-3" x1="30.62" y1="14.78" x2="30.62" y2="10.75"/></svg>