<svg id="Слой_1" data-name="Слой 1" xmlns="http://www.w3.org/2000/svg" viewBox="0 0 42.83 40.03"><defs><style>.cls-1{fill:#aac2e8;}.cls-1,.cls-3{opacity:0.5;}.cls-2{fill:none;stroke:#3265f0;stroke-linecap:round;stroke-linejoin:round;stroke-width:0.9px;}.cls-3{fill:#dbdbdb;}.cls-4{fill:#3369ef;}</style></defs><title>features 6th</title><path id="_Составной_контур_" data-name="&lt;Составной контур&gt;" class="cls-1" d="M379.6,567.24a.57.57,0,0,0-.24-.37.53.53,0,0,0-.42-.09l-1.2.21-.76-1.34.79-.94a.49.49,0,0,0,.13-.4.56.56,0,0,0-.19-.4l-1.05-.88a.55.55,0,0,0-.42-.13.57.57,0,0,0-.38.19l-.78.94-1.44-.53V562.3a.55.55,0,0,0-.15-.4.57.57,0,0,0-.41-.16h-1.37a.55.55,0,0,0-.4.16.56.56,0,0,0-.16.4v1.22l-1.44.52-.78-.94a.59.59,0,0,0-.38-.2.55.55,0,0,0-.42.13l-1.05.89a.61.61,0,0,0-.2.39.62.62,0,0,0,.14.41l.78.94L367,567l-1.21-.21a.57.57,0,0,0-.42.08.54.54,0,0,0-.23.38l-.24,1.35a.54.54,0,0,0,.1.43.56.56,0,0,0,.36.23l1.21.21.25,1.51-1.05.61a.58.58,0,0,0-.26.33.57.57,0,0,0,0,.44l.7,1.19a.52.52,0,0,0,.35.27.58.58,0,0,0,.42-.07l1.06-.61,1.16,1-.42,1.15a.56.56,0,0,0,0,.42.59.59,0,0,0,.33.3l1.29.46a.53.53,0,0,0,.44,0,.57.57,0,0,0,.29-.31l.42-1.16s.49,0,.77,0,.75,0,.75,0l.43,1.15a.51.51,0,0,0,.28.32.53.53,0,0,0,.44,0l1.29-.46a.57.57,0,0,0,.34-.73l-.42-1.15,1.18-1,1.05.62a.62.62,0,0,0,.42.06.59.59,0,0,0,.36-.27l.68-1.19a.56.56,0,0,0,.06-.44.55.55,0,0,0-.26-.33l-1.06-.61.27-1.51,1.21-.21a.59.59,0,0,0,.36-.22.61.61,0,0,0,.11-.43Zm-7.23,5.32a3.4,3.4,0,1,1,3.41-3.4A3.39,3.39,0,0,1,372.37,572.56Z" transform="translate(-337.47 -537.33)"/><path id="_Составной_контур_2" data-name="&lt;Составной контур&gt;" class="cls-2" d="M379.6,567.24a.57.57,0,0,0-.24-.37.53.53,0,0,0-.42-.09l-1.2.21-.76-1.34.79-.94a.49.49,0,0,0,.13-.4.56.56,0,0,0-.19-.4l-1.05-.88a.55.55,0,0,0-.42-.13.57.57,0,0,0-.38.19l-.78.94-1.44-.53V562.3a.55.55,0,0,0-.15-.4.57.57,0,0,0-.41-.16h-1.37a.55.55,0,0,0-.4.16.56.56,0,0,0-.16.4v1.22l-1.44.52-.78-.94a.59.59,0,0,0-.38-.2.55.55,0,0,0-.42.13l-1.05.89a.61.61,0,0,0-.2.39.62.62,0,0,0,.14.41l.78.94L367,567l-1.21-.21a.57.57,0,0,0-.42.08.54.54,0,0,0-.23.38l-.24,1.35a.54.54,0,0,0,.1.43.56.56,0,0,0,.36.23l1.21.21.25,1.51-1.05.61a.58.58,0,0,0-.26.33.57.57,0,0,0,0,.44l.7,1.19a.52.52,0,0,0,.35.27.58.58,0,0,0,.42-.07l1.06-.61,1.16,1-.42,1.15a.56.56,0,0,0,0,.42.59.59,0,0,0,.33.3l1.29.46a.53.53,0,0,0,.44,0,.57.57,0,0,0,.29-.31l.42-1.16s.49,0,.77,0,.75,0,.75,0l.43,1.15a.51.51,0,0,0,.28.32.53.53,0,0,0,.44,0l1.29-.46a.57.57,0,0,0,.34-.73l-.42-1.15,1.18-1,1.05.62a.62.62,0,0,0,.42.06.59.59,0,0,0,.36-.27l.68-1.19a.56.56,0,0,0,.06-.44.55.55,0,0,0-.26-.33l-1.06-.61.27-1.51,1.21-.21a.59.59,0,0,0,.36-.22.61.61,0,0,0,.11-.43Zm-7.23,5.32a3.4,3.4,0,1,1,3.41-3.4A3.39,3.39,0,0,1,372.37,572.56Z" transform="translate(-337.47 -537.33)"/><g id="_Группа_" data-name="&lt;Группа&gt;"><circle id="_Контур_" data-name="&lt;Контур&gt;" class="cls-2" cx="343.02" cy="572.24" r="0.13" transform="translate(-652.71 -73.74) rotate(-49.69)"/><circle id="_Контур_2" data-name="&lt;Контур&gt;" class="cls-2" cx="341.37" cy="569.89" r="0.13" transform="translate(-632.56 -157.77) rotate(-42.43)"/><path id="_Контур_3" data-name="&lt;Контур&gt;" class="cls-2" d="M340.12,567.28a.14.14,0,0,0-.19,0,.12.12,0,0,0,0,.18.14.14,0,0,0,.19,0A.12.12,0,0,0,340.12,567.28Z" transform="translate(-337.47 -537.33)"/><circle id="_Контур_4" data-name="&lt;Контур&gt;" class="cls-2" cx="338.99" cy="564.67" r="0.13" transform="translate(-560.64 -315.8) rotate(-27.62)"/><circle id="_Контур_5" data-name="&lt;Контур&gt;" class="cls-2" cx="338.35" cy="561.87" r="0.13" transform="translate(-511.84 -384.48) rotate(-20.36)"/><path id="_Контур_6" data-name="&lt;Контур&gt;" class="cls-2" d="M338.17,559a.14.14,0,0,0-.16-.1.12.12,0,0,0-.09.15.14.14,0,0,0,.16.1A.12.12,0,0,0,338.17,559Z" transform="translate(-337.47 -537.33)"/><circle id="_Контур_7" data-name="&lt;Контур&gt;" class="cls-2" cx="338.09" cy="556.14" r="0.13" transform="translate(-391.7 -500.5) rotate(-5.77)"/><circle id="_Контур_8" data-name="&lt;Контур&gt;" class="cls-2" cx="338.54" cy="553.3" r="0.13" transform="translate(-560.51 340.58) rotate(-88.57)"/><path id="_Контур_9" data-name="&lt;Контур&gt;" class="cls-2" d="M339.45,550.55a.14.14,0,0,0-.11-.15.12.12,0,0,0-.14.11.14.14,0,0,0,.11.15A.12.12,0,0,0,339.45,550.55Z" transform="translate(-337.47 -537.33)"/><path id="_Контур_10" data-name="&lt;Контур&gt;" class="cls-2" d="M340.56,547.92a.13.13,0,0,0-.09-.16.12.12,0,0,0-.16.09.14.14,0,0,0,.1.16A.12.12,0,0,0,340.56,547.92Z" transform="translate(-337.47 -537.33)"/><circle id="_Контур_11" data-name="&lt;Контур&gt;" class="cls-2" cx="341.91" cy="545.42" r="0.13" transform="translate(-632.1 104.01) rotate(-66.49)"/><circle id="_Контур_12" data-name="&lt;Контур&gt;" class="cls-2" cx="343.68" cy="543.16" r="0.13" transform="matrix(0.51, -0.86, 0.86, 0.51, -636.31, 23.28)"/><circle id="_Контур_13" data-name="&lt;Контур&gt;" class="cls-2" cx="345.7" cy="541.12" r="0.13" transform="translate(-631.01 -56.91) rotate(-52)"/><circle id="_Контур_14" data-name="&lt;Контур&gt;" class="cls-2" cx="347.98" cy="539.36" r="0.13" transform="translate(-616.15 -136.88) rotate(-44.67)"/><path id="_Контур_15" data-name="&lt;Контур&gt;" class="cls-2" d="M350.54,538a.14.14,0,0,0,0-.19.12.12,0,0,0-.18,0,.13.13,0,0,0,0,.19A.12.12,0,0,0,350.54,538Z" transform="translate(-337.47 -537.33)"/></g><path id="_Контур_16" data-name="&lt;Контур&gt;" class="cls-2" d="M364.58,576.39a18.76,18.76,0,1,1,14.13-15.33" transform="translate(-337.47 -537.33)"/><path id="_Контур_17" data-name="&lt;Контур&gt;" class="cls-3" d="M375.35,558.16h0a3.38,3.38,0,0,1-2.09-2.48,13.31,13.31,0,1,0-15.57,15.56,3.38,3.38,0,0,1,2.49,2.11h0a15.18,15.18,0,1,1,15.18-15.18Z" transform="translate(-337.47 -537.33)"/><path id="_Контур_18" data-name="&lt;Контур&gt;" class="cls-2" d="M360.17,573.34a15.18,15.18,0,1,1,15.18-15.18" transform="translate(-337.47 -537.33)"/><path class="cls-4" d="M363.78,559.59h3.14a.35.35,0,1,0,0-.7h-3.14V558h.72a1.24,1.24,0,0,0,1.24-1.23v-1.28a.35.35,0,1,0-.7,0v1.28a.54.54,0,0,1-.53.53h-.73a1.35,1.35,0,0,0-1.34-1.28h-4.34a1.35,1.35,0,0,0-1.34,1.28H356a.54.54,0,0,1-.53-.53v-1.28a.35.35,0,1,0-.7,0v1.28A1.24,1.24,0,0,0,356,558h.72v.86H353.6a.35.35,0,0,0,0,.7h3.14v.59c0,.09,0,.17,0,.26H356a1.24,1.24,0,0,0-1.24,1.23V563a.35.35,0,1,0,.7,0v-1.28a.54.54,0,0,1,.53-.53h.87a3.28,3.28,0,0,0,3.13,2.32h.48a3.28,3.28,0,0,0,3.13-2.32h.87a.54.54,0,0,1,.53.53V563a.35.35,0,1,0,.7,0v-1.28a1.24,1.24,0,0,0-1.24-1.23h-.73c0-.09,0-.17,0-.26Zm-6.34.59v-2.78a.65.65,0,0,1,.65-.65h1.82v6a2.58,2.58,0,0,1-2.47-2.57Zm3.17,2.57v-6h1.82a.65.65,0,0,1,.65.65v2.78a2.58,2.58,0,0,1-2.47,2.57Zm0,0" transform="translate(-337.47 -537.33)"/><path class="cls-4" d="M358,555a.35.35,0,1,0,.7,0,1.53,1.53,0,0,1,3.06,0,.35.35,0,1,0,.7,0,2.24,2.24,0,0,0-4.47,0Zm0,0" transform="translate(-337.47 -537.33)"/></svg>