<svg id="Слой_1" data-name="Слой 1" xmlns="http://www.w3.org/2000/svg" viewBox="0 0 48.34 41.61"><defs><style>.cls-1,.cls-3{fill:#aac2e8;}.cls-1,.cls-2{opacity:0.5;}.cls-2{fill:#dbdbdb;}.cls-4{fill:none;stroke:#3265f0;stroke-linecap:round;stroke-linejoin:round;stroke-width:0.9px;}</style></defs><title>features 1st</title><path id="_Контур_" data-name="&lt;Контур&gt;" class="cls-1" d="M281.37,268.27v26.16h6.17a14.3,14.3,0,0,1,2-10.92c4.07-5.93,11.13-6,11.73-6v-9.25Z" transform="translate(-279.64 -261.13)"/><circle id="_Контур_2" data-name="&lt;Контур&gt;" class="cls-2" cx="20.81" cy="29.64" r="8.44"/><circle id="_Контур_3" data-name="&lt;Контур&gt;" class="cls-3" cx="42.25" cy="22.74" r="0.8"/><circle id="_Контур_4" data-name="&lt;Контур&gt;" class="cls-3" cx="38.8" cy="29.49" r="0.8"/><circle id="_Контур_5" data-name="&lt;Контур&gt;" class="cls-3" cx="42.25" cy="36.48" r="0.8"/><g id="_Группа_" data-name="&lt;Группа&gt;"><g id="_Группа_2" data-name="&lt;Группа&gt;"><path id="_Контур_6" data-name="&lt;Контур&gt;" class="cls-4" d="M283.9,301.81l-.39,0-.29,0a4.15,4.15,0,0,1-.56-.13l-.27-.09a2.91,2.91,0,0,1-.35-.15,3.73,3.73,0,0,1-.92-.64,3.24,3.24,0,0,1-.62-.79,3,3,0,0,1-.15-.29.89.89,0,0,1-.06-.15l-.05-.15a3,3,0,0,1-.16-1V267" transform="translate(-279.64 -261.13)"/><path id="_Контур_7" data-name="&lt;Контур&gt;" class="cls-4" d="M293.37,301.8H283.9l-.39,0a4.35,4.35,0,0,1-1.12-.26l-.35-.15a3.57,3.57,0,0,1-.92-.64h0a3.31,3.31,0,0,1-.62-.79,2.21,2.21,0,0,1-.15-.29,3.07,3.07,0,0,1-.11-.3,3,3,0,0,1-.15-1" transform="translate(-279.64 -261.13)"/><polyline id="_Контур_8" data-name="&lt;Контур&gt;" class="cls-4" points="23.05 15.77 23.05 14.11 23.05 13.38 23.05 10.84 23.05 8.74 23.05 5.88"/><line id="_Контур_9" data-name="&lt;Контур&gt;" class="cls-4" x1="9.77" y1="40.68" x2="20.78" y2="40.68"/><path id="_Контур_10" data-name="&lt;Контур&gt;" class="cls-4" d="M299.49,261.58h-16.2a3.2,3.2,0,0,0-3.2,3.2V267h22.6v-2.24A3.2,3.2,0,0,0,299.49,261.58Z" transform="translate(-279.64 -261.13)"/><line id="_Контур_11" data-name="&lt;Контур&gt;" class="cls-4" x1="9.77" y1="3.17" x2="13.73" y2="3.17"/><line id="_Контур_12" data-name="&lt;Контур&gt;" class="cls-4" x1="8.53" y1="34.89" x2="0.45" y2="34.89"/></g><g id="_Группа_3" data-name="&lt;Группа&gt;"><g id="_Группа_4" data-name="&lt;Группа&gt;"><circle id="_Контур_13" data-name="&lt;Контур&gt;" class="cls-4" cx="327.42" cy="292.91" r="0.11" transform="translate(-328.53 -194.91) rotate(-10.75)"/><circle id="_Контур_14" data-name="&lt;Контур&gt;" class="cls-4" cx="325.07" cy="292.91" r="0.11" transform="translate(-328.57 -195.35) rotate(-10.75)"/><circle id="_Контур_15" data-name="&lt;Контур&gt;" class="cls-4" cx="322.71" cy="292.91" r="0.11" transform="translate(-328.63 -195.75) rotate(-10.76)"/></g><g id="_Группа_5" data-name="&lt;Группа&gt;"><circle id="_Контур_16" data-name="&lt;Контур&gt;" class="cls-4" cx="319.49" cy="286.9" r="0.11" transform="translate(-327.56 -196.46) rotate(-10.76)"/></g><g id="_Группа_6" data-name="&lt;Группа&gt;"><circle id="_Контур_17" data-name="&lt;Контур&gt;" class="cls-4" cx="324.94" cy="288.03" r="0.11" transform="translate(-327.76 -195.29) rotate(-10.78)"/><circle id="_Контур_18" data-name="&lt;Контур&gt;" class="cls-4" cx="322.58" cy="288.03" r="0.11" transform="translate(-327.82 -195.69) rotate(-10.78)"/></g><g id="_Группа_7" data-name="&lt;Группа&gt;"><circle id="_Контур_19" data-name="&lt;Контур&gt;" class="cls-4" cx="319.39" cy="294.61" r="0.11" transform="translate(-329.09 -196.21) rotate(-10.78)"/></g><circle id="_Контур_20" data-name="&lt;Контур&gt;" class="cls-4" cx="42.25" cy="22.74" r="1.48"/><line id="_Контур_21" data-name="&lt;Контур&gt;" class="cls-4" x1="41.84" y1="29.49" x2="43.83" y2="29.49"/><g id="_Группа_8" data-name="&lt;Группа&gt;"><g id="_Группа_9" data-name="&lt;Группа&gt;"><circle id="_Контур_22" data-name="&lt;Контур&gt;" class="cls-4" cx="319.45" cy="301.92" r="0.11" transform="translate(-330.46 -196.07) rotate(-10.78)"/><circle id="_Контур_23" data-name="&lt;Контур&gt;" class="cls-4" cx="317.09" cy="301.92" r="0.11" transform="translate(-330.5 -196.51) rotate(-10.78)"/></g><g id="_Группа_10" data-name="&lt;Группа&gt;"><circle id="_Контур_24" data-name="&lt;Контур&gt;" class="cls-4" cx="319.45" cy="278.79" r="0.11" transform="translate(-326.13 -196.48) rotate(-10.78)"/><circle id="_Контур_25" data-name="&lt;Контур&gt;" class="cls-4" cx="317.09" cy="278.79" r="0.11" transform="translate(-326.17 -196.92) rotate(-10.78)"/></g><g id="_Группа_11" data-name="&lt;Группа&gt;"><path id="_Контур_26" data-name="&lt;Контур&gt;" class="cls-4" d="M308.69,289.17a8.42,8.42,0,1,1-9.88-6.64" transform="translate(-279.64 -261.13)"/><path id="_Контур_27" data-name="&lt;Контур&gt;" class="cls-4" d="M303,282.75a8.43,8.43,0,0,1,4.09,2.82" transform="translate(-279.64 -261.13)"/><circle id="_Эллипс_" data-name="&lt;Эллипс&gt;" class="cls-4" cx="300.43" cy="290.78" r="11.03" transform="translate(-397.31 31.35) rotate(-44.3)"/></g><g id="_Группа_12" data-name="&lt;Группа&gt;"><g id="_Группа_13" data-name="&lt;Группа&gt;"><polyline id="_Контур_28" data-name="&lt;Контур&gt;" class="cls-4" points="18.85 25.77 18.71 25.77 19.49 25.77"/><path id="_Контур_29" data-name="&lt;Контур&gt;" class="cls-4" d="M299.13,286.9h2.06a1.77,1.77,0,0,1,1.85,1.68,1.6,1.6,0,0,1-.54,1.19,2,2,0,0,1-1.31.49h-2.06v-1.77h-1.28" transform="translate(-279.64 -261.13)"/><path id="_Контур_30" data-name="&lt;Контур&gt;" class="cls-4" d="M299.13,294.44h2.58a2.45,2.45,0,0,0,1.64-.61,2,2,0,0,0,.67-1.48,2.21,2.21,0,0,0-2.32-2.1h-.52" transform="translate(-279.64 -261.13)"/><line id="_Контур_31" data-name="&lt;Контур&gt;" class="cls-4" x1="19.49" y1="29.12" x2="19.49" y2="31.71"/><line id="_Контур_32" data-name="&lt;Контур&gt;" class="cls-4" x1="18.5" y1="31.71" x2="20.46" y2="31.71"/><polyline id="_Контур_33" data-name="&lt;Контур&gt;" class="cls-4" points="19.49 33.31 18.38 33.31 17.5 33.31"/><line id="_Контур_34" data-name="&lt;Контур&gt;" class="cls-4" x1="19.88" y1="25.77" x2="19.88" y2="24.85"/><line id="_Контур_35" data-name="&lt;Контур&gt;" class="cls-4" x1="21.68" y1="25.77" x2="21.68" y2="24.85"/><line id="_Контур_36" data-name="&lt;Контур&gt;" class="cls-4" x1="19.88" y1="34.3" x2="19.88" y2="33.38"/><line id="_Контур_37" data-name="&lt;Контур&gt;" class="cls-4" x1="21.68" y1="34.3" x2="21.68" y2="33.38"/></g><line id="_Контур_38" data-name="&lt;Контур&gt;" class="cls-4" x1="19.49" y1="27.35" x2="20.14" y2="27.35"/></g><polyline id="_Контур_39" data-name="&lt;Контур&gt;" class="cls-4" points="40.78 22.74 33.57 22.74 32.3 23.92"/><g id="_Группа_14" data-name="&lt;Группа&gt;"><circle id="_Контур_40" data-name="&lt;Контур&gt;" class="cls-4" cx="42.25" cy="36.47" r="1.48"/><polyline id="_Контур_41" data-name="&lt;Контур&gt;" class="cls-4" points="40.78 36.48 33.57 36.48 32.11 35.48"/></g><circle id="_Контур_42" data-name="&lt;Контур&gt;" class="cls-4" cx="38.8" cy="29.49" r="1.48"/><line id="_Контур_43" data-name="&lt;Контур&gt;" class="cls-4" x1="37.33" y1="29.49" x2="33.86" y2="29.49"/><polyline id="_Контур_44" data-name="&lt;Контур&gt;" class="cls-4" points="33.03 32.52 34.16 33.31 37.91 33.31"/><polyline id="_Контур_45" data-name="&lt;Контур&gt;" class="cls-4" points="33.25 26.62 34.16 25.77 37.91 25.77"/><line id="_Контур_46" data-name="&lt;Контур&gt;" class="cls-4" x1="35.38" y1="38.6" x2="37.38" y2="38.6"/><line id="_Контур_47" data-name="&lt;Контур&gt;" class="cls-4" x1="35.38" y1="20.11" x2="37.38" y2="20.11"/></g><polyline id="_Контур_48" data-name="&lt;Контур&gt;" class="cls-4" points="30.73 37.71 32.83 39.37 32.78 41.16"/><line id="_Контур_49" data-name="&lt;Контур&gt;" class="cls-4" x1="29.09" y1="39.36" x2="30.19" y2="40.3"/><polyline id="_Контур_50" data-name="&lt;Контур&gt;" class="cls-4" points="30.73 20.78 32.83 19.12 32.78 17.33"/><line id="_Контур_51" data-name="&lt;Контур&gt;" class="cls-4" x1="29.09" y1="19.14" x2="30.19" y2="18.19"/></g><line id="_Контур_52" data-name="&lt;Контур&gt;" class="cls-4" x1="5.01" y1="14.18" x2="8.6" y2="10.49"/><line id="_Контур_53" data-name="&lt;Контур&gt;" class="cls-4" x1="9.77" y1="18.29" x2="13.36" y2="14.59"/><line id="_Контур_54" data-name="&lt;Контур&gt;" class="cls-4" x1="4.49" y1="19.14" x2="13.73" y2="9.52"/></g></svg>