<svg id="Слой_1" data-name="Слой 1" xmlns="http://www.w3.org/2000/svg" viewBox="0 0 62.07 42.32"><defs><style>.cls-1{fill:#dbdbdb;}.cls-1,.cls-3{opacity:0.5;}.cls-2{fill:none;stroke:#3265f0;stroke-linecap:round;stroke-linejoin:round;stroke-width:0.9px;}.cls-3{fill:#aac2e8;}</style></defs><title>features 5th</title><path id="_Контур_" data-name="&lt;Контур&gt;" class="cls-1" d="M488.68,230.76a19.9,19.9,0,0,0-6.62-1.17h-.13a19.92,19.92,0,0,0-6.71,1.17l-2-5.57a3.11,3.11,0,0,1,1,.24,2.57,2.57,0,0,1,1.12,1.34l.38.84,4.72-1.27-.07-.9c0-.1-.15-2.46,1.53-3.49,1.68,1,1.53,3.39,1.53,3.49l-.06.89.86.24,3.85,1,.38-.84a3.05,3.05,0,0,1,1.75-1.57,2.61,2.61,0,0,1,.41-.1Z" transform="translate(-451.29 -220.28)"/><path id="_Контур_2" data-name="&lt;Контур&gt;" class="cls-2" d="M492.15,224.14l-2.83,8a18.85,18.85,0,0,0-14.76,0l-2.81-8a6.27,6.27,0,0,1,3,.31,3.52,3.52,0,0,1,1.64,1.86l3-.8s-.29-3.59,2.61-4.78c2.89,1.19,2.61,4.78,2.61,4.78l3,.8a4.12,4.12,0,0,1,2.42-2.15A3.89,3.89,0,0,1,492.15,224.14Z" transform="translate(-451.29 -220.28)"/><line id="_Контур_3" data-name="&lt;Контур&gt;" class="cls-2" x1="28.05" y1="5.23" x2="28.67" y2="8.19"/><line id="_Контур_4" data-name="&lt;Контур&gt;" class="cls-2" x1="33.26" y1="5.23" x2="32.55" y2="8.19"/><line id="_Контур_5" data-name="&lt;Контур&gt;" class="cls-2" x1="25.08" y1="6.03" x2="25.55" y2="7.2"/><line id="_Контур_6" data-name="&lt;Контур&gt;" class="cls-2" x1="36.23" y1="6.03" x2="35.84" y2="7.2"/><path id="_Составной_контур_" data-name="&lt;Составной контур&gt;" class="cls-3" d="M482.33,239.65a8.52,8.52,0,1,1-8.52,8.52,8.53,8.53,0,0,1,8.52-8.52m0-1a9.54,9.54,0,1,0,9.54,9.54,9.54,9.54,0,0,0-9.54-9.54Z" transform="translate(-451.29 -220.28)"/><circle id="_Контур_7" data-name="&lt;Контур&gt;" class="cls-1" cx="55.2" cy="20.02" r="0.85"/><circle id="_Контур_8" data-name="&lt;Контур&gt;" class="cls-1" cx="51.28" cy="27.7" r="0.85"/><circle id="_Контур_9" data-name="&lt;Контур&gt;" class="cls-1" cx="55.2" cy="35.64" r="0.85"/><circle id="_Контур_10" data-name="&lt;Контур&gt;" class="cls-1" cx="10.79" cy="27.7" r="0.85"/><g id="_Группа_" data-name="&lt;Группа&gt;"><g id="_Группа_2" data-name="&lt;Группа&gt;"><g id="_Группа_3" data-name="&lt;Группа&gt;"><path id="_Контур_11" data-name="&lt;Контур&gt;" class="cls-2" d="M491.72,246.33a9.58,9.58,0,1,1-11.24-7.55" transform="translate(-451.29 -220.28)"/><path id="_Контур_12" data-name="&lt;Контур&gt;" class="cls-2" d="M485.2,239a9.58,9.58,0,0,1,4.65,3.21" transform="translate(-451.29 -220.28)"/><circle id="_Эллипс_" data-name="&lt;Эллипс&gt;" class="cls-2" cx="482.33" cy="248.17" r="12.54" transform="translate(-487.5 187.11) rotate(-44.3)"/></g><g id="_Группа_4" data-name="&lt;Группа&gt;"><g id="_Группа_5" data-name="&lt;Группа&gt;"><polyline id="_Контур_13" data-name="&lt;Контур&gt;" class="cls-2" points="28.83 23.46 28.66 23.46 29.55 23.46"/><path id="_Контур_14" data-name="&lt;Контур&gt;" class="cls-2" d="M480.85,243.75h2.35a2,2,0,0,1,2.1,1.91,1.82,1.82,0,0,1-.61,1.35,2.23,2.23,0,0,1-1.49.56h-2.35v-2h-1.45" transform="translate(-451.29 -220.28)"/><path id="_Контур_15" data-name="&lt;Контур&gt;" class="cls-2" d="M480.85,252.32h2.94a2.79,2.79,0,0,0,1.87-.7,2.28,2.28,0,0,0,.77-1.69,2.51,2.51,0,0,0-2.63-2.38h-.59" transform="translate(-451.29 -220.28)"/><line id="_Контур_16" data-name="&lt;Контур&gt;" class="cls-2" x1="29.55" y1="27.28" x2="29.55" y2="30.22"/><line id="_Контур_17" data-name="&lt;Контур&gt;" class="cls-2" x1="28.42" y1="30.22" x2="30.66" y2="30.22"/><polyline id="_Контур_18" data-name="&lt;Контур&gt;" class="cls-2" points="29.55 32.04 28.29 32.04 27.29 32.04"/><line id="_Контур_19" data-name="&lt;Контур&gt;" class="cls-2" x1="30" y1="23.46" x2="30" y2="22.42"/><line id="_Контур_20" data-name="&lt;Контур&gt;" class="cls-2" x1="32.04" y1="23.46" x2="32.04" y2="22.42"/><line id="_Контур_21" data-name="&lt;Контур&gt;" class="cls-2" x1="30" y1="33.17" x2="30" y2="32.12"/><line id="_Контур_22" data-name="&lt;Контур&gt;" class="cls-2" x1="32.04" y1="33.17" x2="32.04" y2="32.12"/></g><line id="_Контур_23" data-name="&lt;Контур&gt;" class="cls-2" x1="29.55" y1="25.26" x2="30.3" y2="25.26"/></g></g><g id="_Группа_6" data-name="&lt;Группа&gt;"><g id="_Группа_7" data-name="&lt;Группа&gt;"><circle id="_Контур_24" data-name="&lt;Контур&gt;" class="cls-2" cx="451.86" cy="250.59" r="0.12" transform="translate(-329.96 427.46) rotate(-79.24)"/><circle id="_Контур_25" data-name="&lt;Контур&gt;" class="cls-2" cx="454.55" cy="250.59" r="0.12" transform="translate(-327.78 430.09) rotate(-79.24)"/><circle id="_Контур_26" data-name="&lt;Контур&gt;" class="cls-2" cx="457.23" cy="250.59" r="0.12" transform="translate(-325.6 432.73) rotate(-79.24)"/></g><g id="_Группа_8" data-name="&lt;Группа&gt;"><circle id="_Контур_27" data-name="&lt;Контур&gt;" class="cls-2" cx="460.88" cy="243.75" r="0.12" transform="translate(-315.77 430.86) rotate(-79.26)"/></g><g id="_Группа_9" data-name="&lt;Группа&gt;"><circle id="_Контур_28" data-name="&lt;Контур&gt;" class="cls-2" cx="454.69" cy="245.03" r="0.12" transform="translate(-322.07 425.82) rotate(-79.26)"/><circle id="_Контур_29" data-name="&lt;Контур&gt;" class="cls-2" cx="457.37" cy="245.03" r="0.12" transform="translate(-319.89 428.46) rotate(-79.26)"/></g><g id="_Группа_10" data-name="&lt;Группа&gt;"><circle id="_Контур_30" data-name="&lt;Контур&gt;" class="cls-2" cx="461.01" cy="252.52" r="0.12" transform="translate(-324.46 437.98) rotate(-79.24)"/></g><circle id="_Контур_31" data-name="&lt;Контур&gt;" class="cls-2" cx="6.86" cy="20.02" r="1.68"/><polyline id="_Контур_32" data-name="&lt;Контур&gt;" class="cls-2" points="8.54 20.02 16.73 20.02 18.18 21.36"/><g id="_Группа_11" data-name="&lt;Группа&gt;"><circle id="_Контур_33" data-name="&lt;Контур&gt;" class="cls-2" cx="6.86" cy="35.64" r="1.68"/><polyline id="_Контур_34" data-name="&lt;Контур&gt;" class="cls-2" points="8.54 35.64 16.73 35.64 18.18 34.3"/></g><circle id="_Контур_35" data-name="&lt;Контур&gt;" class="cls-2" cx="10.79" cy="27.7" r="1.68"/><line id="_Контур_36" data-name="&lt;Контур&gt;" class="cls-2" x1="12.47" y1="27.7" x2="16.41" y2="27.7"/><polyline id="_Контур_37" data-name="&lt;Контур&gt;" class="cls-2" points="17.35 30.85 16.07 32.04 11.8 32.04"/><polyline id="_Контур_38" data-name="&lt;Контур&gt;" class="cls-2" points="17.1 24.43 16.07 23.46 11.8 23.46"/><line id="_Контур_39" data-name="&lt;Контур&gt;" class="cls-2" x1="7.33" y1="27.7" x2="5.07" y2="27.7"/><line id="_Контур_40" data-name="&lt;Контур&gt;" class="cls-2" x1="14.68" y1="38.06" x2="12.41" y2="38.06"/><line id="_Контур_41" data-name="&lt;Контур&gt;" class="cls-2" x1="14.68" y1="17.79" x2="12.41" y2="17.79"/><line id="_Контур_42" data-name="&lt;Контур&gt;" class="cls-2" x1="16.73" y1="20.02" x2="16.73" y2="18.34"/><line id="_Контур_43" data-name="&lt;Контур&gt;" class="cls-2" x1="16.73" y1="35.64" x2="16.73" y2="37.46"/><g id="_Группа_12" data-name="&lt;Группа&gt;"><g id="_Группа_13" data-name="&lt;Группа&gt;"><circle id="_Контур_44" data-name="&lt;Контур&gt;" class="cls-2" cx="458.08" cy="235.51" r="0.12" transform="translate(-309.95 421.4) rotate(-79.26)"/><circle id="_Контур_45" data-name="&lt;Контур&gt;" class="cls-2" cx="460.76" cy="235.51" r="0.12" transform="translate(-307.94 423.91) rotate(-79.24)"/><circle id="_Контур_46" data-name="&lt;Контур&gt;" class="cls-2" cx="463.45" cy="235.51" r="0.12" transform="translate(-305.75 426.54) rotate(-79.24)"/></g><g id="_Группа_14" data-name="&lt;Группа&gt;"><circle id="_Контур_47" data-name="&lt;Контур&gt;" class="cls-2" cx="473.58" cy="234.51" r="0.12" transform="translate(-296.53 435.68) rotate(-79.24)"/><circle id="_Контур_48" data-name="&lt;Контур&gt;" class="cls-2" cx="476.26" cy="234.51" r="0.12" transform="translate(-294.35 438.32) rotate(-79.24)"/></g><polyline id="_Контур_49" data-name="&lt;Контур&gt;" class="cls-2" points="16.41 15.63 19.09 15.63 21.11 17.7"/></g><g id="_Группа_15" data-name="&lt;Группа&gt;"><g id="_Группа_16" data-name="&lt;Группа&gt;"><circle id="_Контур_50" data-name="&lt;Контур&gt;" class="cls-2" cx="458.08" cy="261.03" r="0.12" transform="translate(-491.92 -130.32) rotate(-10.74)"/><circle id="_Контур_51" data-name="&lt;Контур&gt;" class="cls-2" cx="460.76" cy="261.03" r="0.12" transform="translate(-491.94 -129.61) rotate(-10.77)"/><circle id="_Контур_52" data-name="&lt;Контур&gt;" class="cls-2" cx="463.45" cy="261.03" r="0.12" transform="translate(-491.9 -129.11) rotate(-10.77)"/></g><g id="_Группа_17" data-name="&lt;Группа&gt;"><circle id="_Контур_53" data-name="&lt;Контур&gt;" class="cls-2" cx="473.58" cy="262.03" r="0.12" transform="translate(-491.91 -127.2) rotate(-10.77)"/><circle id="_Контур_54" data-name="&lt;Контур&gt;" class="cls-2" cx="476.26" cy="262.03" r="0.12" transform="translate(-491.86 -126.7) rotate(-10.77)"/></g><polyline id="_Контур_55" data-name="&lt;Контур&gt;" class="cls-2" points="21.11 38.27 19.09 40.34 16.41 40.34"/></g></g><g id="_Группа_18" data-name="&lt;Группа&gt;"><circle id="_Контур_56" data-name="&lt;Контур&gt;" class="cls-2" cx="512.79" cy="250.59" r="0.12" transform="translate(-488.99 -120.39) rotate(-10.73)"/><circle id="_Контур_57" data-name="&lt;Контур&gt;" class="cls-2" cx="510.11" cy="250.59" r="0.12" transform="translate(-489.16 -120.44) rotate(-10.78)"/><circle id="_Контур_58" data-name="&lt;Контур&gt;" class="cls-2" cx="507.42" cy="250.59" r="0.12" transform="translate(-489.21 -120.94) rotate(-10.78)"/></g><g id="_Группа_19" data-name="&lt;Группа&gt;"><circle id="_Контур_59" data-name="&lt;Контур&gt;" class="cls-2" cx="503.77" cy="243.75" r="0.12" transform="translate(-487.89 -122.14) rotate(-10.74)"/></g><g id="_Группа_20" data-name="&lt;Группа&gt;"><circle id="_Контур_60" data-name="&lt;Контур&gt;" class="cls-2" cx="509.96" cy="245.03" r="0.12" transform="translate(-488.08 -120.75) rotate(-10.76)"/><circle id="_Контур_61" data-name="&lt;Контур&gt;" class="cls-2" cx="507.28" cy="245.03" r="0.12" transform="translate(-488.13 -121.25) rotate(-10.76)"/></g><g id="_Группа_21" data-name="&lt;Группа&gt;"><circle id="_Контур_62" data-name="&lt;Контур&gt;" class="cls-2" cx="503.65" cy="252.52" r="0.12" transform="translate(-489.59 -121.79) rotate(-10.76)"/></g><circle id="_Контур_63" data-name="&lt;Контур&gt;" class="cls-2" cx="55.2" cy="20.02" r="1.68"/><polyline id="_Контур_64" data-name="&lt;Контур&gt;" class="cls-2" points="43.89 21.36 45.33 20.02 53.52 20.02"/><g id="_Группа_22" data-name="&lt;Группа&gt;"><circle id="_Контур_65" data-name="&lt;Контур&gt;" class="cls-2" cx="55.2" cy="35.64" r="1.68"/><polyline id="_Контур_66" data-name="&lt;Контур&gt;" class="cls-2" points="43.89 34.3 45.33 35.64 53.52 35.64"/></g><circle id="_Контур_67" data-name="&lt;Контур&gt;" class="cls-2" cx="51.28" cy="27.7" r="1.68"/><line id="_Контур_68" data-name="&lt;Контур&gt;" class="cls-2" x1="49.6" y1="27.7" x2="45.65" y2="27.7"/><polyline id="_Контур_69" data-name="&lt;Контур&gt;" class="cls-2" points="44.72 30.85 45.99 32.04 50.27 32.04"/><polyline id="_Контур_70" data-name="&lt;Контур&gt;" class="cls-2" points="44.97 24.43 45.99 23.46 50.27 23.46"/><line id="_Контур_71" data-name="&lt;Контур&gt;" class="cls-2" x1="54.73" y1="27.7" x2="57" y2="27.7"/><line id="_Контур_72" data-name="&lt;Контур&gt;" class="cls-2" x1="47.39" y1="38.06" x2="49.66" y2="38.06"/><line id="_Контур_73" data-name="&lt;Контур&gt;" class="cls-2" x1="47.39" y1="17.79" x2="49.66" y2="17.79"/><line id="_Контур_74" data-name="&lt;Контур&gt;" class="cls-2" x1="45.33" y1="20.02" x2="45.33" y2="18.34"/><line id="_Контур_75" data-name="&lt;Контур&gt;" class="cls-2" x1="45.33" y1="35.64" x2="45.33" y2="37.46"/><g id="_Группа_23" data-name="&lt;Группа&gt;"><g id="_Группа_24" data-name="&lt;Группа&gt;"><circle id="_Контур_76" data-name="&lt;Контур&gt;" class="cls-2" cx="506.57" cy="235.51" r="0.12" transform="translate(-486.42 -121.32) rotate(-10.79)"/><circle id="_Контур_77" data-name="&lt;Контур&gt;" class="cls-2" cx="503.89" cy="235.51" r="0.12" transform="translate(-486.41 -122.04) rotate(-10.76)"/><circle id="_Контур_78" data-name="&lt;Контур&gt;" class="cls-2" cx="501.21" cy="235.51" r="0.12" transform="translate(-486.46 -122.55) rotate(-10.76)"/></g><g id="_Группа_25" data-name="&lt;Группа&gt;"><circle id="_Контур_79" data-name="&lt;Контур&gt;" class="cls-2" cx="491.07" cy="234.51" r="0.12" transform="translate(-486.45 -124.46) rotate(-10.76)"/><circle id="_Контур_80" data-name="&lt;Контур&gt;" class="cls-2" cx="488.39" cy="234.51" r="0.12" transform="translate(-486.49 -124.96) rotate(-10.76)"/></g><polyline id="_Контур_81" data-name="&lt;Контур&gt;" class="cls-2" points="40.95 17.7 42.98 15.63 45.66 15.63"/></g><g id="_Группа_26" data-name="&lt;Группа&gt;"><g id="_Группа_27" data-name="&lt;Группа&gt;"><circle id="_Контур_82" data-name="&lt;Контур&gt;" class="cls-2" cx="506.57" cy="261.03" r="0.12" transform="translate(-295.97 489.5) rotate(-79.21)"/><circle id="_Контур_83" data-name="&lt;Контур&gt;" class="cls-2" cx="503.89" cy="261.03" r="0.12" transform="translate(-297.97 487) rotate(-79.23)"/><circle id="_Контур_84" data-name="&lt;Контур&gt;" class="cls-2" cx="501.21" cy="261.03" r="0.12" transform="translate(-300.15 484.37) rotate(-79.23)"/></g><g id="_Группа_28" data-name="&lt;Группа&gt;"><circle id="_Контур_85" data-name="&lt;Контур&gt;" class="cls-2" cx="491.07" cy="262.03" r="0.12" transform="translate(-309.37 475.23) rotate(-79.23)"/><circle id="_Контур_86" data-name="&lt;Контур&gt;" class="cls-2" cx="488.39" cy="262.03" r="0.12" transform="translate(-311.55 472.59) rotate(-79.23)"/></g><polyline id="_Контур_87" data-name="&lt;Контур&gt;" class="cls-2" points="45.66 40.34 42.98 40.34 40.95 38.27"/></g></g></svg>