<svg id="Слой_1" data-name="Слой 1" xmlns="http://www.w3.org/2000/svg" viewBox="0 0 61.63 33.33"><defs><style>.cls-1,.cls-3{fill:#aac2e8;}.cls-2{fill:#dbdbdb;}.cls-2,.cls-3{opacity:0.5;}.cls-4{fill:none;stroke:#3265f0;stroke-linecap:round;stroke-linejoin:round;stroke-width:0.9px;}</style></defs><title>features 2nd</title><circle id="_Контур_" data-name="&lt;Контур&gt;" class="cls-1" cx="11.4" cy="1.95" r="0.61"/><circle id="_Контур_2" data-name="&lt;Контур&gt;" class="cls-1" cx="57.78" cy="14.13" r="0.85"/><circle id="_Контур_3" data-name="&lt;Контур&gt;" class="cls-1" cx="53.79" cy="21.97" r="0.85"/><circle id="_Контур_4" data-name="&lt;Контур&gt;" class="cls-1" cx="57.78" cy="30" r="0.85"/><circle id="_Контур_5" data-name="&lt;Контур&gt;" class="cls-1" cx="3.16" cy="5.96" r="0.61"/><path id="_Составной_контур_" data-name="&lt;Составной контур&gt;" class="cls-2" d="M66.08,240.68a6.72,6.72,0,1,1-6.72,6.72,6.73,6.73,0,0,1,6.72-6.72m0-1.59a8.31,8.31,0,1,0,8.31,8.31,8.31,8.31,0,0,0-8.31-8.31Z" transform="translate(-29.78 -225.43)"/><path id="_Контур_6" data-name="&lt;Контур&gt;" class="cls-3" d="M68.08,236.67a10.9,10.9,0,0,0-12.2,6.8l-.06-.05a7.28,7.28,0,0,0-4.08.14,7,7,0,0,0-1.49.75,6.39,6.39,0,0,0-1.64,1.61,8.87,8.87,0,0,0-.91,2,5,5,0,0,0-3.48,0,5.13,5.13,0,0,0-3,3.47,3.77,3.77,0,0,0-2.75,3.16h0c-.18.39-3.82.13-5.7-2.07A6.16,6.16,0,0,1,35.12,243a4,4,0,0,0,4.55,6.49,5.66,5.66,0,0,1,1.42-2.61,6,6,0,0,1,3.14-1.64,7,7,0,0,1,2.48-.09,5.63,5.63,0,0,1,.6-2,6.88,6.88,0,0,1,3.38-2.92c2.13-1,2.79-.43,4.78-1.55a5.65,5.65,0,0,0,2.3-1.9,5.21,5.21,0,0,0-.8-6.28c-1.55-1.3-3.76-.61-3.8-1S56,227.9,59,228.47a8.48,8.48,0,0,1,4.2,1.95c1.37,1.23,1.46,2.28,2.63,2.5.92.18,1.5-.34,2.85,0,.19.05,1.13.3,1.13.64s-1.92.5-2.28,1.48A1.87,1.87,0,0,0,68.08,236.67Z" transform="translate(-29.78 -225.43)"/><path id="_Контур_7" data-name="&lt;Контур&gt;" class="cls-4" d="M78.38,236a6.07,6.07,0,0,0-7-3.34,6.66,6.66,0,0,0-1.06-.52,6.77,6.77,0,0,0-3.65-.33,10.91,10.91,0,0,0-15.12-2.92c-2.18,1.46-3.24,3.44-4.4,5.7a16,16,0,0,0-6.49.77,9.39,9.39,0,0,0-5.39,6.28,7,7,0,0,0-5,7v.06a.67.67,0,0,0,0,.15v-.74a.67.67,0,0,0,0,.15v.06a7,7,0,0,0,5,7" transform="translate(-29.78 -225.43)"/><path id="_Контур_8" data-name="&lt;Контур&gt;" class="cls-4" d="M47.71,247.92a8.87,8.87,0,0,1,.91-2,6.4,6.4,0,0,1,1.64-1.61,5.94,5.94,0,0,1,4.05-1" transform="translate(-29.78 -225.43)"/><path id="_Контур_9" data-name="&lt;Контур&gt;" class="cls-4" d="M47.72,247.93h0a5,5,0,0,0-3.48,0,5.13,5.13,0,0,0-3,3.47,3.86,3.86,0,0,0-2.8,3.85v0a2.77,2.77,0,0,0,.1.73,2.86,2.86,0,0,0,2.67,2.27h.85c3.61.05,23.74,0,23.74,0" transform="translate(-29.78 -225.43)"/><g id="_Группа_" data-name="&lt;Группа&gt;"><circle id="_Контур_10" data-name="&lt;Контур&gt;" class="cls-4" cx="37.09" cy="231.39" r="0.12" transform="translate(-226.94 -0.87) rotate(-79.22)"/><circle id="_Контур_11" data-name="&lt;Контур&gt;" class="cls-4" cx="39.81" cy="231.39" r="0.12" transform="translate(-224.72 1.91) rotate(-79.25)"/></g><g id="_Группа_2" data-name="&lt;Группа&gt;"><circle id="_Контур_12" data-name="&lt;Контур&gt;" class="cls-4" cx="11.4" cy="1.95" r="1.5"/><circle id="_Контур_13" data-name="&lt;Контур&gt;" class="cls-4" cx="3.16" cy="5.96" r="1.5"/><polyline id="_Контур_14" data-name="&lt;Контур&gt;" class="cls-4" points="17.92 4.08 16.24 1.95 12.9 1.95"/><polyline id="_Контур_15" data-name="&lt;Контур&gt;" class="cls-4" points="15.41 7.24 14.32 5.96 13.03 5.96"/></g><polyline id="_Контур_16" data-name="&lt;Контур&gt;" class="cls-4" points="3.64 7.37 4.77 9.76 8.12 9.76"/><polyline id="_Контур_17" data-name="&lt;Контур&gt;" class="cls-4" points="2.03 9.97 3.22 12.14 4.29 12.14"/><line id="_Контур_18" data-name="&lt;Контур&gt;" class="cls-4" x1="19.43" y1="2.35" x2="17.92" y2="0.45"/><g id="_Группа_3" data-name="&lt;Группа&gt;"><circle id="_Контур_19" data-name="&lt;Контур&gt;" class="cls-4" cx="84.78" cy="243.05" r="0.12" transform="translate(-73.71 -205.3) rotate(-10.77)"/></g><g id="_Группа_4" data-name="&lt;Группа&gt;"><circle id="_Контур_20" data-name="&lt;Контур&gt;" class="cls-4" cx="90.83" cy="247.23" r="0.12" transform="translate(-74.39 -204.1) rotate(-10.77)"/><circle id="_Контур_21" data-name="&lt;Контур&gt;" class="cls-4" cx="88.11" cy="247.23" r="0.12" transform="translate(-74.43 -204.6) rotate(-10.77)"/></g><g id="_Группа_5" data-name="&lt;Группа&gt;"><circle id="_Контур_22" data-name="&lt;Контур&gt;" class="cls-4" cx="84.66" cy="251.98" r="0.12" transform="translate(-75.4 -205.16) rotate(-10.78)"/></g><circle id="_Контур_23" data-name="&lt;Контур&gt;" class="cls-4" cx="57.78" cy="14.13" r="1.71"/><path id="_Контур_24" data-name="&lt;Контур&gt;" class="cls-4" d="M74.24,245.79a8.33,8.33,0,1,1-9.78-6.57" transform="translate(-29.78 -225.43)"/><path id="_Контур_25" data-name="&lt;Контур&gt;" class="cls-4" d="M68.56,239.45a8.34,8.34,0,0,1,4,2.79" transform="translate(-29.78 -225.43)"/><path id="_Контур_26" data-name="&lt;Контур&gt;" class="cls-4" d="M73.68,255.2a10.91,10.91,0,0,1-17.87-11.54,1.43,1.43,0,0,1,.07-.19,10.91,10.91,0,1,1,17.8,11.73Z" transform="translate(-29.78 -225.43)"/><g id="_Группа_6" data-name="&lt;Группа&gt;"><g id="_Группа_7" data-name="&lt;Группа&gt;"><polyline id="_Контур_27" data-name="&lt;Контур&gt;" class="cls-4" points="34.36 18.12 34.22 18.12 34.99 18.12"/><path id="_Контур_28" data-name="&lt;Контур&gt;" class="cls-4" d="M64.77,243.54h2a1.75,1.75,0,0,1,1.83,1.66,1.58,1.58,0,0,1-.53,1.17,1.94,1.94,0,0,1-1.3.48h-2V245.1H63.51" transform="translate(-29.78 -225.43)"/><path id="_Контур_29" data-name="&lt;Контур&gt;" class="cls-4" d="M64.77,251h2.55A2.42,2.42,0,0,0,69,250.4a2,2,0,0,0,.67-1.47,2.19,2.19,0,0,0-2.29-2.07h-.51" transform="translate(-29.78 -225.43)"/><line id="_Контур_30" data-name="&lt;Контур&gt;" class="cls-4" x1="34.99" y1="21.43" x2="34.99" y2="23.99"/><line id="_Контур_31" data-name="&lt;Контур&gt;" class="cls-4" x1="34.01" y1="23.99" x2="35.95" y2="23.99"/><polyline id="_Контур_32" data-name="&lt;Контур&gt;" class="cls-4" points="34.99 25.58 33.9 25.58 33.03 25.58"/><line id="_Контур_33" data-name="&lt;Контур&gt;" class="cls-4" x1="35.38" y1="18.12" x2="35.38" y2="17.2"/><line id="_Контур_34" data-name="&lt;Контур&gt;" class="cls-4" x1="37.16" y1="18.12" x2="37.16" y2="17.2"/><line id="_Контур_35" data-name="&lt;Контур&gt;" class="cls-4" x1="35.38" y1="26.56" x2="35.38" y2="25.65"/><line id="_Контур_36" data-name="&lt;Контур&gt;" class="cls-4" x1="37.16" y1="26.56" x2="37.16" y2="25.65"/></g><line id="_Контур_37" data-name="&lt;Контур&gt;" class="cls-4" x1="34.99" y1="19.68" x2="35.64" y2="19.68"/></g><polyline id="_Контур_38" data-name="&lt;Контур&gt;" class="cls-4" points="56.07 14.13 49.42 14.13 47.95 15.49"/><g id="_Группа_8" data-name="&lt;Группа&gt;"><circle id="_Контур_39" data-name="&lt;Контур&gt;" class="cls-4" cx="57.78" cy="30" r="1.71"/><polyline id="_Контур_40" data-name="&lt;Контур&gt;" class="cls-4" points="56.07 30 49.42 30 47.73 28.85"/></g><circle id="_Контур_41" data-name="&lt;Контур&gt;" class="cls-4" cx="53.79" cy="21.93" r="1.71"/><line id="_Контур_42" data-name="&lt;Контур&gt;" class="cls-4" x1="52.08" y1="21.93" x2="49.74" y2="21.93"/><polyline id="_Контур_43" data-name="&lt;Контур&gt;" class="cls-4" points="48.8 25.44 50.09 26.35 52.76 26.35"/><polyline id="_Контур_44" data-name="&lt;Контур&gt;" class="cls-4" points="49.05 18.61 50.09 17.63 52.76 17.63"/><line id="_Контур_45" data-name="&lt;Контур&gt;" class="cls-4" x1="45.66" y1="31.09" x2="47.19" y2="32.16"/></svg>