<svg id="Слой_1" data-name="Слой 1" xmlns="http://www.w3.org/2000/svg" viewBox="0 0 41.92 37.74"><defs><style>.cls-1,.cls-3{opacity:0.5;}.cls-2{fill:#aac2e8;}.cls-3{fill:#dbdbdb;}.cls-4{fill:none;stroke:#3265f0;stroke-linecap:round;stroke-linejoin:round;stroke-width:0.9px;}</style></defs><title>features 4th</title><g id="_Группа_" data-name="&lt;Группа&gt;" class="cls-1"><path id="_Составной_контур_" data-name="&lt;Составной контур&gt;" class="cls-2" d="M116.73,226.21h5.17v5.17h-5.17v-5.17m-1-1v7.17h7.17v-7.17Z" transform="translate(-98.36 -224.76)"/><g id="_Группа_2" data-name="&lt;Группа&gt;"><g id="_Группа_3" data-name="&lt;Группа&gt;"><polygon id="_Контур_" data-name="&lt;Контур&gt;" class="cls-2" points="19.37 5.62 19.37 2.45 22.54 2.46 22.54 5.63 19.37 5.62"/></g></g></g><g id="_Группа_4" data-name="&lt;Группа&gt;" class="cls-1"><path id="_Составной_контур_2" data-name="&lt;Составной контур&gt;" class="cls-2" d="M116.73,255.88h5.17v5.17h-5.17v-5.17m-1-1v7.17h7.17v-7.17Z" transform="translate(-98.36 -224.76)"/><g id="_Группа_5" data-name="&lt;Группа&gt;"><g id="_Группа_6" data-name="&lt;Группа&gt;"><polygon id="_Контур_2" data-name="&lt;Контур&gt;" class="cls-2" points="19.37 35.3 19.37 32.13 22.54 32.13 22.54 35.3 19.37 35.3"/></g></g></g><g id="_Группа_7" data-name="&lt;Группа&gt;" class="cls-1"><path id="_Составной_контур_3" data-name="&lt;Составной контур&gt;" class="cls-2" d="M99.7,226.21h5.17v5.17H99.7v-5.17m-1-1v7.17h7.17v-7.17Z" transform="translate(-98.36 -224.76)"/><g id="_Группа_8" data-name="&lt;Группа&gt;"><g id="_Группа_9" data-name="&lt;Группа&gt;"><polygon id="_Контур_3" data-name="&lt;Контур&gt;" class="cls-2" points="2.35 5.62 2.35 2.45 5.52 2.46 5.52 5.63 2.35 5.62"/></g></g></g><g id="_Группа_10" data-name="&lt;Группа&gt;" class="cls-1"><path id="_Составной_контур_4" data-name="&lt;Составной контур&gt;" class="cls-2" d="M133.66,226.21h5.17v5.17h-5.17v-5.17m-1-1v7.17h7.17v-7.17Z" transform="translate(-98.36 -224.76)"/><g id="_Группа_11" data-name="&lt;Группа&gt;"><g id="_Группа_12" data-name="&lt;Группа&gt;"><polygon id="_Контур_4" data-name="&lt;Контур&gt;" class="cls-2" points="36.3 5.62 36.3 2.45 39.47 2.46 39.47 5.63 36.3 5.62"/></g></g></g><g id="_Группа_13" data-name="&lt;Группа&gt;" class="cls-1"><path id="_Составной_контур_5" data-name="&lt;Составной контур&gt;" class="cls-2" d="M99.81,241.05H105v5.17H99.81v-5.17m-1-1v7.17H106v-7.17Z" transform="translate(-98.36 -224.76)"/><g id="_Группа_14" data-name="&lt;Группа&gt;"><g id="_Группа_15" data-name="&lt;Группа&gt;"><polygon id="_Контур_5" data-name="&lt;Контур&gt;" class="cls-2" points="2.45 20.47 2.45 17.3 5.62 17.3 5.62 20.47 2.45 20.47"/></g></g></g><g id="_Группа_16" data-name="&lt;Группа&gt;" class="cls-1"><path id="_Составной_контур_6" data-name="&lt;Составной контур&gt;" class="cls-2" d="M133.66,241h5.17v5.17h-5.17V241m-1-1v7.17h7.17v-7.17Z" transform="translate(-98.36 -224.76)"/><g id="_Группа_17" data-name="&lt;Группа&gt;"><g id="_Группа_18" data-name="&lt;Группа&gt;"><polygon id="_Контур_6" data-name="&lt;Контур&gt;" class="cls-2" points="36.3 20.46 36.3 17.29 39.47 17.29 39.47 20.46 36.3 20.46"/></g></g></g><g id="_Группа_19" data-name="&lt;Группа&gt;" class="cls-1"><path id="_Составной_контур_7" data-name="&lt;Составной контур&gt;" class="cls-2" d="M99.81,255.88H105v5.17H99.81v-5.17m-1-1V262H106v-7.17Z" transform="translate(-98.36 -224.76)"/><g id="_Группа_20" data-name="&lt;Группа&gt;"><g id="_Группа_21" data-name="&lt;Группа&gt;"><polygon id="_Контур_7" data-name="&lt;Контур&gt;" class="cls-2" points="2.45 35.29 2.45 32.12 5.62 32.13 5.62 35.3 2.45 35.29"/></g></g></g><g id="_Группа_22" data-name="&lt;Группа&gt;" class="cls-1"><path id="_Составной_контур_8" data-name="&lt;Составной контур&gt;" class="cls-2" d="M133.66,255.88h5.17v5.17h-5.17v-5.17m-1-1v7.17h7.17v-7.17Z" transform="translate(-98.36 -224.76)"/><g id="_Группа_23" data-name="&lt;Группа&gt;"><g id="_Группа_24" data-name="&lt;Группа&gt;"><polygon id="_Контур_8" data-name="&lt;Контур&gt;" class="cls-2" points="36.3 35.3 36.3 32.13 39.47 32.13 39.47 35.3 36.3 35.3"/></g></g></g><circle id="_Контур_9" data-name="&lt;Контур&gt;" class="cls-3" cx="14.68" cy="10.95" r="0.57"/><circle id="_Контур_10" data-name="&lt;Контур&gt;" class="cls-3" cx="29.63" cy="12.24" r="0.57"/><circle id="_Контур_11" data-name="&lt;Контур&gt;" class="cls-3" cx="29.43" cy="22.46" r="0.57"/><circle id="_Контур_12" data-name="&lt;Контур&gt;" class="cls-3" cx="12.28" cy="26.42" r="0.57"/><g id="_Группа_25" data-name="&lt;Группа&gt;"><g id="_Группа_26" data-name="&lt;Группа&gt;"><circle id="_Контур_13" data-name="&lt;Контур&gt;" class="cls-4" cx="108.62" cy="229.22" r="0.1" transform="translate(-235.19 68.42) rotate(-79.25)"/><circle id="_Контур_14" data-name="&lt;Контур&gt;" class="cls-4" cx="110.92" cy="229.22" r="0.1" transform="translate(-233.33 70.68) rotate(-79.25)"/><circle id="_Контур_15" data-name="&lt;Контур&gt;" class="cls-4" cx="113.21" cy="229.22" r="0.1" transform="translate(-231.46 72.93) rotate(-79.25)"/></g><g id="_Группа_27" data-name="&lt;Группа&gt;"><circle id="_Контур_16" data-name="&lt;Контур&gt;" class="cls-4" cx="125.59" cy="229.22" r="0.1" transform="translate(-221.39 85.09) rotate(-79.25)"/><circle id="_Контур_17" data-name="&lt;Контур&gt;" class="cls-4" cx="127.89" cy="229.22" r="0.1" transform="translate(-219.52 87.35) rotate(-79.25)"/><circle id="_Контур_18" data-name="&lt;Контур&gt;" class="cls-4" cx="130.18" cy="229.22" r="0.1" transform="translate(-217.66 89.6) rotate(-79.25)"/></g><g id="_Группа_28" data-name="&lt;Группа&gt;"><circle id="_Контур_19" data-name="&lt;Контур&gt;" class="cls-4" cx="108.62" cy="243.64" r="0.1" transform="translate(-249.36 80.15) rotate(-79.25)"/><circle id="_Контур_20" data-name="&lt;Контур&gt;" class="cls-4" cx="110.92" cy="243.64" r="0.1" transform="translate(-247.49 82.4) rotate(-79.25)"/></g><g id="_Группа_29" data-name="&lt;Группа&gt;"><circle id="_Контур_21" data-name="&lt;Контур&gt;" class="cls-4" cx="127.89" cy="243.64" r="0.1" transform="translate(-233.69 99.07) rotate(-79.25)"/><circle id="_Контур_22" data-name="&lt;Контур&gt;" class="cls-4" cx="130.18" cy="243.64" r="0.1" transform="translate(-231.82 101.33) rotate(-79.25)"/></g><g id="_Группа_30" data-name="&lt;Группа&gt;"><circle id="_Контур_23" data-name="&lt;Контур&gt;" class="cls-4" cx="108.62" cy="258.05" r="0.1" transform="translate(-263.52 91.88) rotate(-79.25)"/><circle id="_Контур_24" data-name="&lt;Контур&gt;" class="cls-4" cx="110.92" cy="258.05" r="0.1" transform="translate(-261.66 94.13) rotate(-79.25)"/><circle id="_Контур_25" data-name="&lt;Контур&gt;" class="cls-4" cx="113.21" cy="258.05" r="0.1" transform="translate(-259.79 96.38) rotate(-79.25)"/></g><g id="_Группа_31" data-name="&lt;Группа&gt;"><circle id="_Контур_26" data-name="&lt;Контур&gt;" class="cls-4" cx="125.59" cy="258.05" r="0.1" transform="translate(-249.72 108.55) rotate(-79.25)"/><circle id="_Контур_27" data-name="&lt;Контур&gt;" class="cls-4" cx="127.89" cy="258.05" r="0.1" transform="translate(-247.85 110.8) rotate(-79.25)"/><circle id="_Контур_28" data-name="&lt;Контур&gt;" class="cls-4" cx="130.18" cy="258.05" r="0.1" transform="translate(-245.99 113.05) rotate(-79.25)"/></g><g id="_Группа_32" data-name="&lt;Группа&gt;"><circle id="_Контур_29" data-name="&lt;Контур&gt;" class="cls-4" cx="102.39" cy="234.91" r="0.1" transform="translate(-245.85 66.94) rotate(-79.25)"/><circle id="_Контур_30" data-name="&lt;Контур&gt;" class="cls-4" cx="102.39" cy="237.21" r="0.1" transform="translate(-248.08 68.91) rotate(-79.28)"/></g><g id="_Группа_33" data-name="&lt;Группа&gt;"><circle id="_Контур_31" data-name="&lt;Контур&gt;" class="cls-4" cx="102.39" cy="250.11" r="0.1" transform="translate(-260.78 79.29) rotate(-79.25)"/><circle id="_Контур_32" data-name="&lt;Контур&gt;" class="cls-4" cx="102.39" cy="252.4" r="0.1" transform="translate(-263.04 81.16) rotate(-79.25)"/></g><g id="_Группа_34" data-name="&lt;Группа&gt;"><circle id="_Контур_33" data-name="&lt;Контур&gt;" class="cls-4" cx="136.24" cy="234.91" r="0.1" transform="translate(-218.32 100.19) rotate(-79.25)"/><circle id="_Контур_34" data-name="&lt;Контур&gt;" class="cls-4" cx="136.24" cy="237.21" r="0.1" transform="translate(-220.53 102.17) rotate(-79.28)"/></g><g id="_Группа_35" data-name="&lt;Группа&gt;"><circle id="_Контур_35" data-name="&lt;Контур&gt;" class="cls-4" cx="136.24" cy="250.11" r="0.1" transform="translate(-233.25 112.55) rotate(-79.25)"/><circle id="_Контур_36" data-name="&lt;Контур&gt;" class="cls-4" cx="136.24" cy="252.4" r="0.1" transform="translate(-235.5 114.41) rotate(-79.25)"/></g><g id="_Группа_36" data-name="&lt;Группа&gt;"><g id="_Группа_37" data-name="&lt;Группа&gt;"><polyline id="_Контур_37" data-name="&lt;Контур&gt;" class="cls-4" points="17.93 13.36 17.72 13.36 18.85 13.36"/><path id="_Контур_38" data-name="&lt;Контур&gt;" class="cls-4" d="M117.21,238.12h3a2.56,2.56,0,0,1,2.68,2.43,2.32,2.32,0,0,1-.78,1.72,2.84,2.84,0,0,1-1.9.71h-3v-2.57h-1.85" transform="translate(-98.36 -224.76)"/><path id="_Контур_39" data-name="&lt;Контур&gt;" class="cls-4" d="M117.21,249.05h3.74a3.55,3.55,0,0,0,2.38-.89,2.9,2.9,0,0,0,1-2.15,3.2,3.2,0,0,0-3.35-3h-.75" transform="translate(-98.36 -224.76)"/><line id="_Контур_40" data-name="&lt;Контур&gt;" class="cls-4" x1="18.85" y1="18.22" x2="18.85" y2="21.96"/><line id="_Контур_41" data-name="&lt;Контур&gt;" class="cls-4" x1="17.41" y1="21.96" x2="20.26" y2="21.96"/><polyline id="_Контур_42" data-name="&lt;Контур&gt;" class="cls-4" points="18.85 24.29 17.25 24.29 15.97 24.29"/><line id="_Контур_43" data-name="&lt;Контур&gt;" class="cls-4" x1="19.42" y1="13.36" x2="19.42" y2="12.03"/><line id="_Контур_44" data-name="&lt;Контур&gt;" class="cls-4" x1="22.02" y1="13.36" x2="22.02" y2="12.03"/><line id="_Контур_45" data-name="&lt;Контур&gt;" class="cls-4" x1="19.42" y1="25.73" x2="19.42" y2="24.39"/><line id="_Контур_46" data-name="&lt;Контур&gt;" class="cls-4" x1="22.02" y1="25.73" x2="22.02" y2="24.39"/></g><line id="_Контур_47" data-name="&lt;Контур&gt;" class="cls-4" x1="18.85" y1="15.65" x2="19.8" y2="15.65"/></g><rect id="_Прямоугольник_" data-name="&lt;Прямоугольник&gt;" class="cls-4" x="0.45" y="0.46" width="7.17" height="7.17"/><polygon id="_Контур_48" data-name="&lt;Контур&gt;" class="cls-4" points="24.54 7.63 17.37 7.62 17.37 0.45 24.54 0.46 24.54 7.63"/><rect id="_Прямоугольник_2" data-name="&lt;Прямоугольник&gt;" class="cls-4" x="34.3" y="0.46" width="7.17" height="7.17"/><rect id="_Прямоугольник_3" data-name="&lt;Прямоугольник&gt;" class="cls-4" x="0.45" y="15.29" width="7.17" height="7.17"/><rect id="_Прямоугольник_4" data-name="&lt;Прямоугольник&gt;" class="cls-4" x="34.3" y="15.29" width="7.17" height="7.17"/><rect id="_Прямоугольник_5" data-name="&lt;Прямоугольник&gt;" class="cls-4" x="0.45" y="30.12" width="7.17" height="7.17"/><rect id="_Прямоугольник_6" data-name="&lt;Прямоугольник&gt;" class="cls-4" x="17.37" y="30.12" width="7.17" height="7.17"/><rect id="_Прямоугольник_7" data-name="&lt;Прямоугольник&gt;" class="cls-4" x="34.3" y="30.12" width="7.17" height="7.17"/><polyline id="_Контур_49" data-name="&lt;Контур&gt;" class="cls-4" points="7.62 7.63 7.62 10.88 13.32 10.88"/><circle id="_Контур_50" data-name="&lt;Контур&gt;" class="cls-4" cx="14.68" cy="10.95" r="1.36"/><circle id="_Контур_51" data-name="&lt;Контур&gt;" class="cls-4" cx="29.43" cy="22.46" r="1.36"/><circle id="_Контур_52" data-name="&lt;Контур&gt;" class="cls-4" cx="29.63" cy="12.24" r="1.36"/><circle id="_Контур_53" data-name="&lt;Контур&gt;" class="cls-4" cx="12.28" cy="26.42" r="1.36"/><line id="_Контур_54" data-name="&lt;Контур&gt;" class="cls-4" x1="24.54" y1="30.12" x2="24.54" y2="28.03"/><polyline id="_Контур_55" data-name="&lt;Контур&gt;" class="cls-4" points="7.62 30.12 7.62 26.49 10.92 26.49"/><line id="_Контур_56" data-name="&lt;Контур&gt;" class="cls-4" x1="7.62" y1="15.29" x2="10.16" y2="15.29"/><line id="_Контур_57" data-name="&lt;Контур&gt;" class="cls-4" x1="24.54" y1="7.63" x2="24.54" y2="9.59"/><line id="_Контур_58" data-name="&lt;Контур&gt;" class="cls-4" x1="24.54" y1="0.46" x2="27.34" y2="0.46"/><line id="_Контур_59" data-name="&lt;Контур&gt;" class="cls-4" x1="34.3" y1="22.46" x2="30.82" y2="22.46"/><polyline id="_Контур_60" data-name="&lt;Контур&gt;" class="cls-4" points="34.3 30.12 29.92 30.12 29.92 28.31"/><line id="_Контур_61" data-name="&lt;Контур&gt;" class="cls-4" x1="34.3" y1="15.29" x2="34.3" y2="12.94"/><polyline id="_Контур_62" data-name="&lt;Контур&gt;" class="cls-4" points="34.3 7.63 29.63 7.63 29.63 10.88"/><line id="_Контур_63" data-name="&lt;Контур&gt;" class="cls-4" x1="7.62" y1="0.46" x2="9.62" y2="0.46"/><line id="_Контур_64" data-name="&lt;Контур&gt;" class="cls-4" x1="0.45" y1="7.63" x2="0.45" y2="9.91"/><line id="_Контур_65" data-name="&lt;Контур&gt;" class="cls-4" x1="17.37" y1="0.46" x2="14.96" y2="0.46"/><line id="_Контур_66" data-name="&lt;Контур&gt;" class="cls-4" x1="17.37" y1="37.29" x2="14.75" y2="37.29"/><line id="_Контур_67" data-name="&lt;Контур&gt;" class="cls-4" x1="24.54" y1="37.29" x2="27.13" y2="37.29"/><path id="_Контур_68" data-name="&lt;Контур&gt;" class="cls-4" d="M132.66,262.05" transform="translate(-98.36 -224.76)"/><line id="_Контур_69" data-name="&lt;Контур&gt;" class="cls-4" x1="34.3" y1="37.29" x2="31.96" y2="37.29"/><line id="_Контур_70" data-name="&lt;Контур&gt;" class="cls-4" x1="41.47" y1="30.12" x2="41.47" y2="28.3"/><line id="_Контур_71" data-name="&lt;Контур&gt;" class="cls-4" x1="7.62" y1="37.29" x2="9.27" y2="37.29"/><line id="_Контур_72" data-name="&lt;Контур&gt;" class="cls-4" x1="0.45" y1="30.12" x2="0.45" y2="28.3"/><line id="_Контур_73" data-name="&lt;Контур&gt;" class="cls-4" x1="41.47" y1="7.63" x2="41.47" y2="9.91"/><line id="_Контур_74" data-name="&lt;Контур&gt;" class="cls-4" x1="34.3" y1="0.46" x2="32.11" y2="0.46"/></g></svg>