<svg id="Слой_1" data-name="Слой 1" xmlns="http://www.w3.org/2000/svg" viewBox="0 0 45.44 44.14"><defs><style>.cls-1,.cls-5{fill:none;stroke-linecap:round;stroke-linejoin:round;stroke-width:0.9px;}.cls-1{stroke:#3265f0;}.cls-2,.cls-3{fill:#aac2e8;}.cls-2,.cls-4{opacity:0.5;}.cls-4{fill:#dbdbdb;}.cls-5{stroke:#334055;}</style></defs><title>features 3rd</title><g id="_Группа_" data-name="&lt;Группа&gt;"><g id="_Группа_2" data-name="&lt;Группа&gt;"><polyline id="_Контур_" data-name="&lt;Контур&gt;" class="cls-1" points="32.3 29.18 32.17 29.18 32.89 29.18"/><path id="_Контур_2" data-name="&lt;Контур&gt;" class="cls-1" d="M132,182.65h1.91a1.63,1.63,0,0,1,1.71,1.55,1.48,1.48,0,0,1-.5,1.1,1.81,1.81,0,0,1-1.21.45H132v-1.35h-1.18" transform="translate(-99.11 -153.47)"/><path id="_Контур_3" data-name="&lt;Контур&gt;" class="cls-1" d="M132,189.61h2.38a2.26,2.26,0,0,0,1.52-.57,1.85,1.85,0,0,0,.62-1.37,2,2,0,0,0-2.14-1.94h-.48" transform="translate(-99.11 -153.47)"/><line id="_Контур_4" data-name="&lt;Контур&gt;" class="cls-1" x1="32.89" y1="32.27" x2="32.89" y2="34.21"/><line id="_Контур_5" data-name="&lt;Контур&gt;" class="cls-1" x1="31.97" y1="34.21" x2="33.79" y2="34.21"/><polyline id="_Контур_6" data-name="&lt;Контур&gt;" class="cls-1" points="32.89 36.15 31.87 36.15 31.05 36.15"/><line id="_Контур_7" data-name="&lt;Контур&gt;" class="cls-1" x1="33.25" y1="29.18" x2="33.25" y2="28.33"/><line id="_Контур_8" data-name="&lt;Контур&gt;" class="cls-1" x1="34.91" y1="29.18" x2="34.91" y2="28.33"/><line id="_Контур_9" data-name="&lt;Контур&gt;" class="cls-1" x1="33.25" y1="37.06" x2="33.25" y2="36.21"/><line id="_Контур_10" data-name="&lt;Контур&gt;" class="cls-1" x1="34.91" y1="37.06" x2="34.91" y2="36.21"/></g><line id="_Контур_11" data-name="&lt;Контур&gt;" class="cls-1" x1="32.89" y1="30.93" x2="33.49" y2="30.93"/></g><polygon id="_Контур_12" data-name="&lt;Контур&gt;" class="cls-2" points="5.83 4.25 5.83 31.93 1.99 37.45 1.99 4.25 5.83 4.25"/><polygon id="_Контур_13" data-name="&lt;Контур&gt;" class="cls-3" points="5.69 37.56 5.83 43.69 1.99 43.69 1.97 42.91 5.69 37.56"/><polygon id="_Контур_14" data-name="&lt;Контур&gt;" class="cls-2" points="16.65 11.19 16.65 24.99 12.82 30.76 12.82 11.19 16.65 11.19"/><polygon id="_Контур_15" data-name="&lt;Контур&gt;" class="cls-3" points="16.65 31 16.65 43.69 12.82 43.69 12.82 37.05 16.65 31"/><path id="_Контур_16" data-name="&lt;Контур&gt;" class="cls-2" d="M126.68,162.15v13a13.16,13.16,0,0,0-3.84,3.28V162.15Z" transform="translate(-99.11 -153.47)"/><path id="_Контур_17" data-name="&lt;Контур&gt;" class="cls-3" d="M127.12,197.15h-4.28v-4.44A11,11,0,0,0,127.12,197.15Z" transform="translate(-99.11 -153.47)"/><g id="_Группа_3" data-name="&lt;Группа&gt;"><circle id="_Контур_18" data-name="&lt;Контур&gt;" class="cls-1" cx="131.89" cy="172.61" r="0.07" transform="translate(-161.44 116.43) rotate(-79.22)"/><circle id="_Контур_19" data-name="&lt;Контур&gt;" class="cls-1" cx="131.89" cy="174.22" r="0.07" transform="translate(-162.96 117.87) rotate(-79.26)"/></g><g id="_Группа_4" data-name="&lt;Группа&gt;"><circle id="_Контур_20" data-name="&lt;Контур&gt;" class="cls-1" cx="138.8" cy="169.51" r="0.07" transform="translate(-152.77 120.71) rotate(-79.23)"/><circle id="_Контур_21" data-name="&lt;Контур&gt;" class="cls-1" cx="138.8" cy="171.12" r="0.07" transform="translate(-154.29 122.14) rotate(-79.26)"/></g><g id="_Группа_5" data-name="&lt;Группа&gt;"><circle id="_Контур_22" data-name="&lt;Контур&gt;" class="cls-1" cx="133.99" cy="165.4" r="0.07" transform="translate(-152.65 112.64) rotate(-79.23)"/><circle id="_Контур_23" data-name="&lt;Контур&gt;" class="cls-1" cx="133.99" cy="167.01" r="0.07" transform="translate(-154.24 113.94) rotate(-79.22)"/></g><g id="_Группа_6" data-name="&lt;Группа&gt;"><circle id="_Контур_24" data-name="&lt;Контур&gt;" class="cls-1" cx="136.3" cy="171.65" r="0.07" transform="translate(-156.91 119.98) rotate(-79.22)"/><circle id="_Контур_25" data-name="&lt;Контур&gt;" class="cls-1" cx="136.3" cy="169.99" r="0.07" transform="translate(-155.28 118.63) rotate(-79.22)"/><circle id="_Контур_26" data-name="&lt;Контур&gt;" class="cls-1" cx="136.3" cy="173.26" r="0.07" transform="translate(-158.43 121.43) rotate(-79.26)"/><circle id="_Контур_27" data-name="&lt;Контур&gt;" class="cls-1" cx="136.3" cy="174.87" r="0.07" transform="translate(-160.01 122.75) rotate(-79.26)"/></g><g id="_Группа_7" data-name="&lt;Группа&gt;"><circle id="_Контур_28" data-name="&lt;Контур&gt;" class="cls-1" cx="129.72" cy="172.41" r="0.07" transform="translate(-162.94 114.27) rotate(-79.26)"/><circle id="_Контур_29" data-name="&lt;Контур&gt;" class="cls-1" cx="129.72" cy="170.75" r="0.07" transform="translate(-161.38 112.79) rotate(-79.22)"/><circle id="_Контур_30" data-name="&lt;Контур&gt;" class="cls-1" cx="129.72" cy="174.02" r="0.07" transform="translate(-164.53 115.58) rotate(-79.26)"/><circle id="_Контур_31" data-name="&lt;Контур&gt;" class="cls-1" cx="129.72" cy="175.63" r="0.07" transform="translate(-166.17 116.76) rotate(-79.22)"/></g><path id="_Контур_32" data-name="&lt;Контур&gt;" class="cls-4" d="M127.42,192.88a8.72,8.72,0,0,1,11.08-13.46l-.27.16a3.64,3.64,0,0,1-3,.28,6.69,6.69,0,0,0-7.4,10.54,6.86,6.86,0,0,0,.91.92,6.7,6.7,0,0,0,7.39.76,3.78,3.78,0,0,1,3.42-.14h0A8.73,8.73,0,0,1,127.42,192.88Z" transform="translate(-99.11 -153.47)"/><path id="_Контур_33" data-name="&lt;Контур&gt;" class="cls-1" d="M139.69,191.71a8.71,8.71,0,1,1-1.17-12.27" transform="translate(-99.11 -153.47)"/><path id="_Контур_34" data-name="&lt;Контур&gt;" class="cls-1" d="M141.06,182.92a8.66,8.66,0,0,1,.58,4.21,8.78,8.78,0,0,1-.15.91" transform="translate(-99.11 -153.47)"/><line id="_Контур_35" data-name="&lt;Контур&gt;" class="cls-1" x1="39.69" y1="23.26" x2="39.69" y2="20.38"/><line id="_Контур_36" data-name="&lt;Контур&gt;" class="cls-1" x1="34.88" y1="22" x2="34.88" y2="15.82"/><line id="_Контур_37" data-name="&lt;Контур&gt;" class="cls-1" x1="32.42" y1="15.94" x2="32.42" y2="13.04"/><line id="_Контур_38" data-name="&lt;Контур&gt;" class="cls-1" x1="37.41" y1="14.2" x2="37.41" y2="12.75"/><path id="_Контур_39" data-name="&lt;Контур&gt;" class="cls-1" d="M138.8,176.84a10.94,10.94,0,1,1-11.28,0V176" transform="translate(-99.11 -153.47)"/><line id="_Контур_40" data-name="&lt;Контур&gt;" class="cls-1" x1="9.67" y1="38.19" x2="9.67" y2="43.69"/><polyline id="_Контур_41" data-name="&lt;Контур&gt;" class="cls-1" points="1.99 37.99 1.99 4.24 9.67 4.24 9.67 33.36"/><line id="_Контур_42" data-name="&lt;Контур&gt;" class="cls-5" x1="1.99" y1="43.69" x2="1.99" y2="42.83"/><line id="_Контур_43" data-name="&lt;Контур&gt;" class="cls-1" x1="20.49" y1="30.92" x2="20.49" y2="43.69"/><polyline id="_Контур_44" data-name="&lt;Контур&gt;" class="cls-1" points="12.81 31.1 12.81 11.18 20.49 11.18 20.49 24.47"/><line id="_Контур_45" data-name="&lt;Контур&gt;" class="cls-1" x1="12.81" y1="43.69" x2="12.81" y2="36.93"/><polyline id="_Контур_46" data-name="&lt;Контур&gt;" class="cls-1" points="23.73 17.3 23.73 8.68 31.41 8.68 31.41 9.82"/><line id="_Контур_47" data-name="&lt;Контур&gt;" class="cls-1" x1="1.99" y1="43.69" x2="34.05" y2="43.69"/><polyline id="_Контур_48" data-name="&lt;Контур&gt;" class="cls-1" points="0.45 42.39 6.61 33.53 11.2 36.49 17.09 27.17 19.86 28.92 23.11 24.6"/><line id="_Контур_49" data-name="&lt;Контур&gt;" class="cls-1" x1="5.83" y1="0.45" x2="5.83" y2="2.16"/><g id="_Группа_8" data-name="&lt;Группа&gt;"><line id="_Контур_50" data-name="&lt;Контур&gt;" class="cls-1" x1="15.84" y1="7.76" x2="15.84" y2="9.61"/><line id="_Контур_51" data-name="&lt;Контур&gt;" class="cls-1" x1="17.46" y1="7.76" x2="17.46" y2="9.61"/></g><g id="_Группа_9" data-name="&lt;Группа&gt;"><line id="_Контур_52" data-name="&lt;Контур&gt;" class="cls-1" x1="25.93" y1="5.4" x2="25.93" y2="7.25"/><line id="_Контур_53" data-name="&lt;Контур&gt;" class="cls-1" x1="27.55" y1="5.4" x2="27.55" y2="7.25"/><line id="_Контур_54" data-name="&lt;Контур&gt;" class="cls-1" x1="29.21" y1="5.4" x2="29.21" y2="7.25"/></g></svg>