<svg id="Слой_1" data-name="Слой 1" xmlns="http://www.w3.org/2000/svg" viewBox="0 0 44.35 32.39"><defs><style>.cls-1,.cls-3{fill:#aac2e8;}.cls-1,.cls-2{opacity:0.5;}.cls-2{fill:#dbdbdb;}.cls-4{fill:none;stroke:#3265f0;stroke-linecap:round;stroke-linejoin:round;stroke-width:0.9px;}</style></defs><title>services 3rd</title><rect id="_Прямоугольник_" data-name="&lt;Прямоугольник&gt;" class="cls-1" x="11.61" y="18.62" width="2.9" height="8.73"/><rect id="_Прямоугольник_2" data-name="&lt;Прямоугольник&gt;" class="cls-1" x="15.73" y="16" width="2.9" height="11.35"/><rect id="_Прямоугольник_3" data-name="&lt;Прямоугольник&gt;" class="cls-2" x="19.85" y="13.12" width="2.9" height="14.23"/><rect id="_Прямоугольник_4" data-name="&lt;Прямоугольник&gt;" class="cls-1" x="23.96" y="14.11" width="2.9" height="13.25"/><rect id="_Прямоугольник_5" data-name="&lt;Прямоугольник&gt;" class="cls-2" x="28.08" y="10.06" width="2.9" height="17.29"/><circle id="_Контур_" data-name="&lt;Контур&gt;" class="cls-3" cx="4.18" cy="4.01" r="1.1"/><circle id="_Контур_2" data-name="&lt;Контур&gt;" class="cls-3" cx="8.49" cy="4.01" r="1.1"/><circle id="_Контур_3" data-name="&lt;Контур&gt;" class="cls-3" cx="12.79" cy="4.01" r="1.1"/><g id="_Группа_" data-name="&lt;Группа&gt;"><rect id="_Контур_4" data-name="&lt;Контур&gt;" class="cls-4" x="0.45" y="0.45" width="43.45" height="7.12"/><polyline id="_Контур_5" data-name="&lt;Контур&gt;" class="cls-4" points="0.45 7.57 0.45 31.94 43.9 31.94 43.9 7.57"/><circle id="_Контур_6" data-name="&lt;Контур&gt;" class="cls-4" cx="4.18" cy="4.01" r="1.18"/><circle id="_Контур_7" data-name="&lt;Контур&gt;" class="cls-4" cx="8.49" cy="4.01" r="1.18"/><circle id="_Контур_8" data-name="&lt;Контур&gt;" class="cls-4" cx="12.79" cy="4.01" r="1.18"/><line id="_Контур_9" data-name="&lt;Контур&gt;" class="cls-4" x1="17.18" y1="4.01" x2="34.69" y2="4.01"/><line id="_Контур_10" data-name="&lt;Контур&gt;" class="cls-4" x1="38.07" y1="2.8" x2="40.28" y2="5.01"/><line id="_Контур_11" data-name="&lt;Контур&gt;" class="cls-4" x1="40.28" y1="2.8" x2="38.07" y2="5.01"/><g id="_Группа_2" data-name="&lt;Группа&gt;"><g id="_Группа_3" data-name="&lt;Группа&gt;"><polyline id="_Контур_12" data-name="&lt;Контур&gt;" class="cls-4" points="19.69 14.65 19.52 14.65 20.45 14.65"/><path id="_Контур_13" data-name="&lt;Контур&gt;" class="cls-4" d="M299.35,177.06h2.45a2.09,2.09,0,0,1,2.19,2,1.9,1.9,0,0,1-.64,1.41,2.32,2.32,0,0,1-1.56.58h-2.45v-2.1h-1.52" transform="translate(-278.89 -162.41)"/><path id="_Контур_14" data-name="&lt;Контур&gt;" class="cls-4" d="M299.35,186h3.06a2.91,2.91,0,0,0,1.95-.72,2.37,2.37,0,0,0,.8-1.76,2.62,2.62,0,0,0-2.74-2.48h-.61" transform="translate(-278.89 -162.41)"/><line id="_Контур_15" data-name="&lt;Контур&gt;" class="cls-4" x1="20.45" y1="18.62" x2="20.45" y2="21.69"/><line id="_Контур_16" data-name="&lt;Контур&gt;" class="cls-4" x1="19.27" y1="21.69" x2="21.6" y2="21.69"/><polyline id="_Контур_17" data-name="&lt;Контур&gt;" class="cls-4" points="20.45 23.59 19.14 23.59 18.09 23.59"/><line id="_Контур_18" data-name="&lt;Контур&gt;" class="cls-4" x1="20.92" y1="14.65" x2="20.92" y2="13.56"/><line id="_Контур_19" data-name="&lt;Контур&gt;" class="cls-4" x1="23.04" y1="14.65" x2="23.04" y2="13.56"/><line id="_Контур_20" data-name="&lt;Контур&gt;" class="cls-4" x1="20.92" y1="24.77" x2="20.92" y2="23.67"/><line id="_Контур_21" data-name="&lt;Контур&gt;" class="cls-4" x1="23.04" y1="24.77" x2="23.04" y2="23.67"/></g><line id="_Контур_22" data-name="&lt;Контур&gt;" class="cls-4" x1="20.45" y1="16.52" x2="21.23" y2="16.52"/></g><polyline id="_Контур_23" data-name="&lt;Контур&gt;" class="cls-4" points="26.69 14.65 27.91 13.56 31.44 13.56 35.02 9.83 32.55 10.28"/><polyline id="_Контур_24" data-name="&lt;Контур&gt;" class="cls-4" points="6.67 29.14 11.82 25.23 14.86 25.23 16.06 24.17"/><line id="_Контур_25" data-name="&lt;Контур&gt;" class="cls-4" x1="35.02" y1="9.83" x2="34.69" y2="12.14"/><line id="_Контур_26" data-name="&lt;Контур&gt;" class="cls-4" x1="3.37" y1="10.98" x2="6.38" y2="10.98"/><line id="_Контур_27" data-name="&lt;Контур&gt;" class="cls-4" x1="3.37" y1="14.11" x2="7.84" y2="14.11"/><line id="_Контур_28" data-name="&lt;Контур&gt;" class="cls-4" x1="3.37" y1="17.23" x2="6.38" y2="17.23"/><line id="_Контур_29" data-name="&lt;Контур&gt;" class="cls-4" x1="3.37" y1="20.35" x2="7.84" y2="20.35"/><line id="_Контур_30" data-name="&lt;Контур&gt;" class="cls-4" x1="3.37" y1="23.47" x2="6.38" y2="23.47"/><line id="_Контур_31" data-name="&lt;Контур&gt;" class="cls-4" x1="41.28" y1="20.55" x2="38.27" y2="20.55"/><line id="_Контур_32" data-name="&lt;Контур&gt;" class="cls-4" x1="41.28" y1="23.67" x2="36.81" y2="23.67"/><line id="_Контур_33" data-name="&lt;Контур&gt;" class="cls-4" x1="41.28" y1="17.55" x2="36.81" y2="17.55"/><line id="_Контур_34" data-name="&lt;Контур&gt;" class="cls-4" x1="41.28" y1="26.8" x2="38.27" y2="26.8"/></g></svg>