<svg id="Слой_1" data-name="Слой 1" xmlns="http://www.w3.org/2000/svg" viewBox="0 0 42.28 41.42"><defs><style>.cls-1{fill:#aac2e8;}.cls-1,.cls-2{opacity:0.5;}.cls-2{fill:#dcdde1;}.cls-3{fill:none;stroke:#3265f0;stroke-linecap:round;stroke-linejoin:round;stroke-width:0.9px;}</style></defs><title>services 2nd</title><circle id="_Контур_" data-name="&lt;Контур&gt;" class="cls-1" cx="11.19" cy="31.96" r="1.85"/><circle id="_Контур_2" data-name="&lt;Контур&gt;" class="cls-1" cx="31.08" cy="31.96" r="1.85"/><rect id="_Прямоугольник_" data-name="&lt;Прямоугольник&gt;" class="cls-2" x="1.78" y="4.5" width="7.5" height="13.37"/><rect id="_Прямоугольник_2" data-name="&lt;Прямоугольник&gt;" class="cls-1" x="17.39" y="4.5" width="7.5" height="13.37"/><rect id="_Прямоугольник_3" data-name="&lt;Прямоугольник&gt;" class="cls-2" x="33.03" y="4.5" width="7.5" height="13.37"/><g id="_Группа_" data-name="&lt;Группа&gt;"><g id="_Группа_2" data-name="&lt;Группа&gt;"><path id="_Контур_3" data-name="&lt;Контур&gt;" class="cls-3" d="M349.15,376a3.8,3.8,0,0,0,1.87-2.12,3.71,3.71,0,0,0,0-2.22,14.71,14.71,0,0,0-4.09.24,3.18,3.18,0,0,1,1.81,1.61" transform="translate(-337.96 -345.92)"/><path id="_Контур_4" data-name="&lt;Контур&gt;" class="cls-3" d="M347.54,377a3.8,3.8,0,0,0-.9-2.68,3.71,3.71,0,0,0-1.91-1.14,14.71,14.71,0,0,0-1.85,3.66,2.83,2.83,0,0,1,2.18-.75" transform="translate(-337.96 -345.92)"/><path id="_Контур_5" data-name="&lt;Контур&gt;" class="cls-3" d="M347.54,378.8a3.8,3.8,0,0,0-2.77-.57,3.71,3.71,0,0,0-1.95,1.07,14.72,14.72,0,0,0,2.24,3.43,3.71,3.71,0,0,1,.66-2.41" transform="translate(-337.96 -345.92)"/><path id="_Контур_6" data-name="&lt;Контур&gt;" class="cls-3" d="M349.14,379.74a3.8,3.8,0,0,0-1.88,2.11,3.71,3.71,0,0,0,0,2.22,14.71,14.71,0,0,0,4.09-.21,3.08,3.08,0,0,1-1.61-1.63" transform="translate(-337.96 -345.92)"/><path id="_Контур_7" data-name="&lt;Контур&gt;" class="cls-3" d="M350.75,378.82a3.8,3.8,0,0,0,.88,2.69,3.71,3.71,0,0,0,1.9,1.16,14.71,14.71,0,0,0,1.87-3.65,2.74,2.74,0,0,1-2.12.6" transform="translate(-337.96 -345.92)"/><circle id="_Контур_8" data-name="&lt;Контур&gt;" class="cls-3" cx="349.15" cy="377.88" r="1.85" transform="translate(-478.63 -125.45) rotate(-29.45)"/><path id="_Контур_9" data-name="&lt;Контур&gt;" class="cls-3" d="M350.76,377a3.8,3.8,0,0,0,2.77.59,3.71,3.71,0,0,0,2-1.06,14.71,14.71,0,0,0-2.22-3.44,2.57,2.57,0,0,1-.43,2.17" transform="translate(-337.96 -345.92)"/></g><g id="_Группа_3" data-name="&lt;Группа&gt;"><path id="_Контур_10" data-name="&lt;Контур&gt;" class="cls-3" d="M369,376a3.79,3.79,0,0,0,1.87-2.12,3.71,3.71,0,0,0,0-2.22,14.71,14.71,0,0,0-4.09.24,3.18,3.18,0,0,1,1.81,1.61" transform="translate(-337.96 -345.92)"/><path id="_Контур_11" data-name="&lt;Контур&gt;" class="cls-3" d="M367.44,377a3.8,3.8,0,0,0-.9-2.68,3.71,3.71,0,0,0-1.91-1.14,14.71,14.71,0,0,0-1.85,3.66A2.83,2.83,0,0,1,365,376" transform="translate(-337.96 -345.92)"/><path id="_Контур_12" data-name="&lt;Контур&gt;" class="cls-3" d="M367.43,378.8a3.8,3.8,0,0,0-2.77-.57,3.71,3.71,0,0,0-1.95,1.07,14.72,14.72,0,0,0,2.24,3.43,3.71,3.71,0,0,1,.66-2.41" transform="translate(-337.96 -345.92)"/><path id="_Контур_13" data-name="&lt;Контур&gt;" class="cls-3" d="M369,379.74a3.8,3.8,0,0,0-1.88,2.11,3.71,3.71,0,0,0,0,2.22,14.71,14.71,0,0,0,4.09-.21,3.08,3.08,0,0,1-1.61-1.63" transform="translate(-337.96 -345.92)"/><path id="_Контур_14" data-name="&lt;Контур&gt;" class="cls-3" d="M370.64,378.82a3.79,3.79,0,0,0,.88,2.69,3.7,3.7,0,0,0,1.9,1.16,14.71,14.71,0,0,0,1.87-3.65,2.74,2.74,0,0,1-2.12.6" transform="translate(-337.96 -345.92)"/><path id="_Контур_15" data-name="&lt;Контур&gt;" class="cls-3" d="M370.65,377a3.79,3.79,0,0,0,2.77.59,3.71,3.71,0,0,0,2-1.06,14.71,14.71,0,0,0-2.22-3.44,2.57,2.57,0,0,1-.43,2.17" transform="translate(-337.96 -345.92)"/><circle id="_Контур_16" data-name="&lt;Контур&gt;" class="cls-3" cx="369.04" cy="377.88" r="1.85" transform="translate(-476.07 -115.65) rotate(-29.45)"/></g></g><rect id="_Контур_17" data-name="&lt;Контур&gt;" class="cls-3" x="0.45" y="3.36" width="10.1" height="15.76"/><g id="_Группа_4" data-name="&lt;Группа&gt;"><line id="_Контур_18" data-name="&lt;Контур&gt;" class="cls-3" x1="3.24" y1="19.12" x2="3.24" y2="20.52"/><line id="_Контур_19" data-name="&lt;Контур&gt;" class="cls-3" x1="7.52" y1="19.12" x2="7.52" y2="20.52"/></g><rect id="_Контур_20" data-name="&lt;Контур&gt;" class="cls-3" x="16.09" y="3.36" width="10.1" height="15.76"/><g id="_Группа_5" data-name="&lt;Группа&gt;"><line id="_Контур_21" data-name="&lt;Контур&gt;" class="cls-3" x1="18.88" y1="19.12" x2="18.88" y2="20.52"/><line id="_Контур_22" data-name="&lt;Контур&gt;" class="cls-3" x1="23.16" y1="19.12" x2="23.16" y2="20.52"/></g><rect id="_Контур_23" data-name="&lt;Контур&gt;" class="cls-3" x="31.73" y="3.36" width="10.1" height="15.76"/><g id="_Группа_6" data-name="&lt;Группа&gt;"><line id="_Контур_24" data-name="&lt;Контур&gt;" class="cls-3" x1="34.52" y1="19.12" x2="34.52" y2="20.52"/><line id="_Контур_25" data-name="&lt;Контур&gt;" class="cls-3" x1="38.8" y1="19.12" x2="38.8" y2="20.52"/></g><rect id="_Контур_26" data-name="&lt;Контур&gt;" class="cls-3" x="0.45" y="22.95" width="41.38" height="18.03"/><line id="_Контур_27" data-name="&lt;Контур&gt;" class="cls-3" x1="0.45" y1="0.45" x2="10.55" y2="0.45"/><line id="_Контур_28" data-name="&lt;Контур&gt;" class="cls-3" x1="16.09" y1="0.45" x2="26.19" y2="0.45"/><line id="_Контур_29" data-name="&lt;Контур&gt;" class="cls-3" x1="31.72" y1="0.45" x2="41.82" y2="0.45"/></svg>