<svg id="Слой_1" data-name="Слой 1" xmlns="http://www.w3.org/2000/svg" viewBox="0 0 45.77 47.57"><defs><style>.cls-1{fill:#dcdde1;}.cls-1,.cls-2{opacity:0.5;}.cls-2{fill:#aac2e8;}.cls-3{fill:none;stroke:#3265f0;stroke-linecap:round;stroke-linejoin:round;stroke-width:0.9px;}</style></defs><title>services 1st</title><polygon id="_Контур_" data-name="&lt;Контур&gt;" class="cls-1" points="5.76 24.37 5.76 40.73 28.37 40.73 5.76 24.37"/><circle id="_Контур_2" data-name="&lt;Контур&gt;" class="cls-2" cx="32.99" cy="32.58" r="2.07"/><rect id="_Прямоугольник_" data-name="&lt;Прямоугольник&gt;" class="cls-3" x="3.63" y="22.51" width="41.69" height="20.25"/><polyline id="_Контур_3" data-name="&lt;Контур&gt;" class="cls-3" points="3.63 22.52 3.63 18.64 0.45 18.64"/><line id="_Контур_4" data-name="&lt;Контур&gt;" class="cls-3" x1="3.63" y1="42.76" x2="3.63" y2="47.12"/><polyline id="_Контур_5" data-name="&lt;Контур&gt;" class="cls-3" points="3.46 24.96 0.94 24.96 0.94 27.46 3.63 27.46"/><polyline id="_Контур_6" data-name="&lt;Контур&gt;" class="cls-3" points="3.63 31.45 0.94 31.45 0.94 38.18 3.63 38.18"/><g id="_Группа_" data-name="&lt;Группа&gt;"><path id="_Контур_7" data-name="&lt;Контур&gt;" class="cls-3" d="M251,182a4.23,4.23,0,0,0,2.08-2.36,4.13,4.13,0,0,0,0-2.48,16.4,16.4,0,0,0-4.56.26,3.55,3.55,0,0,1,2,1.79" transform="translate(-217.99 -151.49)"/><path id="_Контур_8" data-name="&lt;Контур&gt;" class="cls-3" d="M249.19,183a4.23,4.23,0,0,0-1-3,4.13,4.13,0,0,0-2.12-1.28,16.4,16.4,0,0,0-2.06,4.08,3.15,3.15,0,0,1,2.43-.84" transform="translate(-217.99 -151.49)"/><path id="_Контур_9" data-name="&lt;Контур&gt;" class="cls-3" d="M249.19,185.1a4.23,4.23,0,0,0-3.09-.64,4.13,4.13,0,0,0-2.17,1.2,16.39,16.39,0,0,0,2.49,3.82,4.14,4.14,0,0,1,.73-2.69" transform="translate(-217.99 -151.49)"/><path id="_Контур_10" data-name="&lt;Контур&gt;" class="cls-3" d="M251,186.14a4.23,4.23,0,0,0-2.1,2.35,4.13,4.13,0,0,0-.05,2.48,16.4,16.4,0,0,0,4.56-.24,3.43,3.43,0,0,1-1.79-1.81" transform="translate(-217.99 -151.49)"/><path id="_Контур_11" data-name="&lt;Контур&gt;" class="cls-3" d="M252.76,185.13a4.23,4.23,0,0,0,1,3,4.13,4.13,0,0,0,2.12,1.29,16.41,16.41,0,0,0,2.08-4.06,3.05,3.05,0,0,1-2.36.67" transform="translate(-217.99 -151.49)"/><circle id="_Контур_12" data-name="&lt;Контур&gt;" class="cls-3" cx="250.98" cy="184.08" r="2.07" transform="translate(-276.07 -4.33) rotate(-29.45)"/><path id="_Контур_13" data-name="&lt;Контур&gt;" class="cls-3" d="M252.78,183.06a4.23,4.23,0,0,0,3.08.65,4.13,4.13,0,0,0,2.18-1.19,16.39,16.39,0,0,0-2.47-3.84,2.87,2.87,0,0,1-.48,2.42" transform="translate(-217.99 -151.49)"/></g><g id="_Группа_2" data-name="&lt;Группа&gt;"><g id="_Группа_3" data-name="&lt;Группа&gt;"><circle id="_Контур_14" data-name="&lt;Контур&gt;" class="cls-3" cx="232.91" cy="198.42" r="0.12" transform="translate(-223.59 238.58) rotate(-79.21)"/><circle id="_Контур_15" data-name="&lt;Контур&gt;" class="cls-3" cx="235.62" cy="198.42" r="0.12" transform="translate(-221.38 241.25) rotate(-79.21)"/><circle id="_Контур_16" data-name="&lt;Контур&gt;" class="cls-3" cx="238.34" cy="198.42" r="0.12" transform="translate(-219.25 243.82) rotate(-79.19)"/><circle id="_Контур_17" data-name="&lt;Контур&gt;" class="cls-3" cx="241.05" cy="198.42" r="0.12" transform="translate(-216.95 246.6) rotate(-79.22)"/><circle id="_Контур_18" data-name="&lt;Контур&gt;" class="cls-3" cx="243.77" cy="198.42" r="0.12" transform="translate(-214.76 249.25) rotate(-79.21)"/><circle id="_Контур_19" data-name="&lt;Контур&gt;" class="cls-3" cx="246.48" cy="198.42" r="0.12" transform="translate(-212.63 251.82) rotate(-79.19)"/><circle id="_Контур_20" data-name="&lt;Контур&gt;" class="cls-3" cx="249.17" cy="198.42" r="0.12" transform="translate(-210.46 254.45) rotate(-79.19)"/><circle id="_Контур_21" data-name="&lt;Контур&gt;" class="cls-3" cx="251.88" cy="198.42" r="0.12" transform="translate(-208.18 257.2) rotate(-79.21)"/></g><polyline id="_Контур_22" data-name="&lt;Контур&gt;" class="cls-3" points="35.71 46.8 35.71 44.88 12.72 44.88 12.72 46.8"/></g><g id="_Группа_4" data-name="&lt;Группа&gt;"><g id="_Группа_5" data-name="&lt;Группа&gt;"><circle id="_Контур_23" data-name="&lt;Контур&gt;" class="cls-3" cx="254.46" cy="152.09" r="0.14" transform="translate(-241.93 -101.27) rotate(-10.77)"/><circle id="_Контур_24" data-name="&lt;Контур&gt;" class="cls-3" cx="254.46" cy="155.24" r="0.14" transform="translate(-242.51 -101.23) rotate(-10.77)"/></g><g id="_Группа_6" data-name="&lt;Группа&gt;"><circle id="_Контур_25" data-name="&lt;Контур&gt;" class="cls-3" cx="245.03" cy="154.18" r="0.14" transform="translate(-242.45 -103.09) rotate(-10.75)"/><circle id="_Контур_26" data-name="&lt;Контур&gt;" class="cls-3" cx="245.03" cy="157.33" r="0.14" transform="translate(-243.08 -102.93) rotate(-10.77)"/></g><g id="_Группа_7" data-name="&lt;Группа&gt;"><circle id="_Контур_27" data-name="&lt;Контур&gt;" class="cls-3" cx="230.62" cy="154.83" r="0.14" transform="translate(-242.92 -105.55) rotate(-10.8)"/><circle id="_Контур_28" data-name="&lt;Контур&gt;" class="cls-3" cx="230.62" cy="157.98" r="0.14" transform="translate(-243.5 -105.5) rotate(-10.8)"/></g><circle id="_Контур_29" data-name="&lt;Контур&gt;" class="cls-3" cx="249.75" cy="157.4" r="0.14" transform="translate(-243 -102.06) rotate(-10.77)"/><circle id="_Контур_30" data-name="&lt;Контур&gt;" class="cls-3" cx="240.29" cy="157.54" r="0.14" transform="translate(-243.17 -103.9) rotate(-10.75)"/><g id="_Группа_8" data-name="&lt;Группа&gt;"><g id="_Группа_9" data-name="&lt;Группа&gt;"><polyline id="_Контур_31" data-name="&lt;Контур&gt;" class="cls-3" points="11.21 10.81 12.63 9.34 12.63 14.18"/><line id="_Контур_32" data-name="&lt;Контур&gt;" class="cls-3" x1="11.55" y1="14.18" x2="13.62" y2="14.18"/></g><g id="_Группа_10" data-name="&lt;Группа&gt;"><polyline id="_Контур_33" data-name="&lt;Контур&gt;" class="cls-3" points="20.92 10.81 22.34 9.34 22.34 14.18"/><line id="_Контур_34" data-name="&lt;Контур&gt;" class="cls-3" x1="21.26" y1="14.18" x2="23.33" y2="14.18"/></g><path id="_Контур_35" data-name="&lt;Контур&gt;" class="cls-3" d="M236.66,161.79v2.93a1,1,0,0,1-1,1h-1.09a1,1,0,0,1-1-1v-2.93a1,1,0,0,1,1-1" transform="translate(-217.99 -151.49)"/><path id="_Контур_36" data-name="&lt;Контур&gt;" class="cls-3" d="M226,160.83a1,1,0,0,1,1,1v2.93a1,1,0,0,1-1,1h-1.09a1,1,0,0,1-1-1v-2.93" transform="translate(-217.99 -151.49)"/><g id="_Группа_11" data-name="&lt;Группа&gt;"><polyline id="_Контур_37" data-name="&lt;Контур&gt;" class="cls-3" points="30.51 10.81 31.93 9.34 31.93 14.18"/><line id="_Контур_38" data-name="&lt;Контур&gt;" class="cls-3" x1="30.85" y1="14.18" x2="32.92" y2="14.18"/></g><path id="_Контур_39" data-name="&lt;Контур&gt;" class="cls-3" d="M253,161.79v2.93a1,1,0,0,0,1,1H255a1,1,0,0,0,1-1v-2.93a1,1,0,0,0-1-1h-.33v-1.75" transform="translate(-217.99 -151.49)"/><path id="_Контур_40" data-name="&lt;Контур&gt;" class="cls-3" d="M246.39,161.79v2.93a1,1,0,0,1-1,1h-1.09a1,1,0,0,1-1-1v-2.93a1,1,0,0,1,1-1h.55" transform="translate(-217.99 -151.49)"/></g><g id="_Группа_12" data-name="&lt;Группа&gt;"><polyline id="_Контур_41" data-name="&lt;Контур&gt;" class="cls-3" points="40.3 10.81 41.72 9.34 41.72 14.18"/><line id="_Контур_42" data-name="&lt;Контур&gt;" class="cls-3" x1="40.64" y1="14.18" x2="42.71" y2="14.18"/></g><g id="_Группа_13" data-name="&lt;Группа&gt;"><polyline id="_Контур_43" data-name="&lt;Контур&gt;" class="cls-3" points="16.25 18.25 17.67 16.77 17.67 20.58"/></g><g id="_Группа_14" data-name="&lt;Группа&gt;"><polyline id="_Контур_44" data-name="&lt;Контур&gt;" class="cls-3" points="6.23 18.25 7.65 16.77 7.65 20.58"/></g><g id="_Группа_15" data-name="&lt;Группа&gt;"><polyline id="_Контур_45" data-name="&lt;Контур&gt;" class="cls-3" points="25.96 18.25 27.38 16.77 27.38 20.58"/></g><path id="_Контур_46" data-name="&lt;Контур&gt;" class="cls-3" d="M238.71,172.07v-2.81a1,1,0,0,1,1-1h1a1,1,0,0,1,1,1v2.81" transform="translate(-217.99 -151.49)"/><path id="_Контур_47" data-name="&lt;Контур&gt;" class="cls-3" d="M229,172.07v-2.8a1,1,0,0,1,1-1h1a1,1,0,0,1,1,1v2.81" transform="translate(-217.99 -151.49)"/><g id="_Группа_16" data-name="&lt;Группа&gt;"><polyline id="_Контур_48" data-name="&lt;Контур&gt;" class="cls-3" points="35.55 18.25 36.97 16.77 36.97 20.58"/></g><path id="_Контур_49" data-name="&lt;Контур&gt;" class="cls-3" d="M258,172.07v-2.8a1,1,0,0,1,1-1h1a1,1,0,0,1,1,1v2.81" transform="translate(-217.99 -151.49)"/><path id="_Контур_50" data-name="&lt;Контур&gt;" class="cls-3" d="M248.43,172.07v-2.8a1,1,0,0,1,1-1h1a1,1,0,0,1,1,1v2.81" transform="translate(-217.99 -151.49)"/><line id="_Контур_51" data-name="&lt;Контур&gt;" class="cls-3" x1="18.67" y1="10.29" x2="18.67" y2="7.15"/><line id="_Контур_52" data-name="&lt;Контур&gt;" class="cls-3" x1="5.94" y1="10.29" x2="5.94" y2="8.04"/><line id="_Контур_53" data-name="&lt;Контур&gt;" class="cls-3" x1="18.67" y1="4.12" x2="18.67" y2="2.27"/><line id="_Контур_54" data-name="&lt;Контур&gt;" class="cls-3" x1="5.94" y1="4.66" x2="5.94" y2="2.82"/><line id="_Контур_55" data-name="&lt;Контур&gt;" class="cls-3" x1="41.72" y1="5.5" x2="41.72" y2="3.88"/></g></svg>